G75*
%MOIN*%
%OFA0B0*%
%FSLAX25Y25*%
%IPPOS*%
%LPD*%
%AMOC8*
5,1,8,0,0,1.08239X$1,22.5*
%
%ADD10C,0.00000*%
%ADD11C,0.01200*%
%ADD12C,0.00100*%
%ADD13C,0.07137*%
%ADD14R,0.08200X0.08200*%
%ADD15C,0.08200*%
%ADD16R,0.07400X0.07400*%
%ADD17C,0.07400*%
%ADD18OC8,0.07400*%
%ADD19C,0.06400*%
%ADD20C,0.07600*%
%ADD21C,0.13800*%
%ADD22OC8,0.07200*%
%ADD23R,0.05131X0.06312*%
D10*
X0045000Y0005000D02*
X0434951Y0005000D01*
X0434951Y0229961D01*
X0159500Y0060000D02*
X0159502Y0060161D01*
X0159508Y0060321D01*
X0159518Y0060482D01*
X0159532Y0060642D01*
X0159550Y0060802D01*
X0159571Y0060961D01*
X0159597Y0061120D01*
X0159627Y0061278D01*
X0159660Y0061435D01*
X0159698Y0061592D01*
X0159739Y0061747D01*
X0159784Y0061901D01*
X0159833Y0062054D01*
X0159886Y0062206D01*
X0159942Y0062357D01*
X0160003Y0062506D01*
X0160066Y0062654D01*
X0160134Y0062800D01*
X0160205Y0062944D01*
X0160279Y0063086D01*
X0160357Y0063227D01*
X0160439Y0063365D01*
X0160524Y0063502D01*
X0160612Y0063636D01*
X0160704Y0063768D01*
X0160799Y0063898D01*
X0160897Y0064026D01*
X0160998Y0064151D01*
X0161102Y0064273D01*
X0161209Y0064393D01*
X0161319Y0064510D01*
X0161432Y0064625D01*
X0161548Y0064736D01*
X0161667Y0064845D01*
X0161788Y0064950D01*
X0161912Y0065053D01*
X0162038Y0065153D01*
X0162166Y0065249D01*
X0162297Y0065342D01*
X0162431Y0065432D01*
X0162566Y0065519D01*
X0162704Y0065602D01*
X0162843Y0065682D01*
X0162985Y0065758D01*
X0163128Y0065831D01*
X0163273Y0065900D01*
X0163420Y0065966D01*
X0163568Y0066028D01*
X0163718Y0066086D01*
X0163869Y0066141D01*
X0164022Y0066192D01*
X0164176Y0066239D01*
X0164331Y0066282D01*
X0164487Y0066321D01*
X0164643Y0066357D01*
X0164801Y0066388D01*
X0164959Y0066416D01*
X0165118Y0066440D01*
X0165278Y0066460D01*
X0165438Y0066476D01*
X0165598Y0066488D01*
X0165759Y0066496D01*
X0165920Y0066500D01*
X0166080Y0066500D01*
X0166241Y0066496D01*
X0166402Y0066488D01*
X0166562Y0066476D01*
X0166722Y0066460D01*
X0166882Y0066440D01*
X0167041Y0066416D01*
X0167199Y0066388D01*
X0167357Y0066357D01*
X0167513Y0066321D01*
X0167669Y0066282D01*
X0167824Y0066239D01*
X0167978Y0066192D01*
X0168131Y0066141D01*
X0168282Y0066086D01*
X0168432Y0066028D01*
X0168580Y0065966D01*
X0168727Y0065900D01*
X0168872Y0065831D01*
X0169015Y0065758D01*
X0169157Y0065682D01*
X0169296Y0065602D01*
X0169434Y0065519D01*
X0169569Y0065432D01*
X0169703Y0065342D01*
X0169834Y0065249D01*
X0169962Y0065153D01*
X0170088Y0065053D01*
X0170212Y0064950D01*
X0170333Y0064845D01*
X0170452Y0064736D01*
X0170568Y0064625D01*
X0170681Y0064510D01*
X0170791Y0064393D01*
X0170898Y0064273D01*
X0171002Y0064151D01*
X0171103Y0064026D01*
X0171201Y0063898D01*
X0171296Y0063768D01*
X0171388Y0063636D01*
X0171476Y0063502D01*
X0171561Y0063365D01*
X0171643Y0063227D01*
X0171721Y0063086D01*
X0171795Y0062944D01*
X0171866Y0062800D01*
X0171934Y0062654D01*
X0171997Y0062506D01*
X0172058Y0062357D01*
X0172114Y0062206D01*
X0172167Y0062054D01*
X0172216Y0061901D01*
X0172261Y0061747D01*
X0172302Y0061592D01*
X0172340Y0061435D01*
X0172373Y0061278D01*
X0172403Y0061120D01*
X0172429Y0060961D01*
X0172450Y0060802D01*
X0172468Y0060642D01*
X0172482Y0060482D01*
X0172492Y0060321D01*
X0172498Y0060161D01*
X0172500Y0060000D01*
X0172498Y0059839D01*
X0172492Y0059679D01*
X0172482Y0059518D01*
X0172468Y0059358D01*
X0172450Y0059198D01*
X0172429Y0059039D01*
X0172403Y0058880D01*
X0172373Y0058722D01*
X0172340Y0058565D01*
X0172302Y0058408D01*
X0172261Y0058253D01*
X0172216Y0058099D01*
X0172167Y0057946D01*
X0172114Y0057794D01*
X0172058Y0057643D01*
X0171997Y0057494D01*
X0171934Y0057346D01*
X0171866Y0057200D01*
X0171795Y0057056D01*
X0171721Y0056914D01*
X0171643Y0056773D01*
X0171561Y0056635D01*
X0171476Y0056498D01*
X0171388Y0056364D01*
X0171296Y0056232D01*
X0171201Y0056102D01*
X0171103Y0055974D01*
X0171002Y0055849D01*
X0170898Y0055727D01*
X0170791Y0055607D01*
X0170681Y0055490D01*
X0170568Y0055375D01*
X0170452Y0055264D01*
X0170333Y0055155D01*
X0170212Y0055050D01*
X0170088Y0054947D01*
X0169962Y0054847D01*
X0169834Y0054751D01*
X0169703Y0054658D01*
X0169569Y0054568D01*
X0169434Y0054481D01*
X0169296Y0054398D01*
X0169157Y0054318D01*
X0169015Y0054242D01*
X0168872Y0054169D01*
X0168727Y0054100D01*
X0168580Y0054034D01*
X0168432Y0053972D01*
X0168282Y0053914D01*
X0168131Y0053859D01*
X0167978Y0053808D01*
X0167824Y0053761D01*
X0167669Y0053718D01*
X0167513Y0053679D01*
X0167357Y0053643D01*
X0167199Y0053612D01*
X0167041Y0053584D01*
X0166882Y0053560D01*
X0166722Y0053540D01*
X0166562Y0053524D01*
X0166402Y0053512D01*
X0166241Y0053504D01*
X0166080Y0053500D01*
X0165920Y0053500D01*
X0165759Y0053504D01*
X0165598Y0053512D01*
X0165438Y0053524D01*
X0165278Y0053540D01*
X0165118Y0053560D01*
X0164959Y0053584D01*
X0164801Y0053612D01*
X0164643Y0053643D01*
X0164487Y0053679D01*
X0164331Y0053718D01*
X0164176Y0053761D01*
X0164022Y0053808D01*
X0163869Y0053859D01*
X0163718Y0053914D01*
X0163568Y0053972D01*
X0163420Y0054034D01*
X0163273Y0054100D01*
X0163128Y0054169D01*
X0162985Y0054242D01*
X0162843Y0054318D01*
X0162704Y0054398D01*
X0162566Y0054481D01*
X0162431Y0054568D01*
X0162297Y0054658D01*
X0162166Y0054751D01*
X0162038Y0054847D01*
X0161912Y0054947D01*
X0161788Y0055050D01*
X0161667Y0055155D01*
X0161548Y0055264D01*
X0161432Y0055375D01*
X0161319Y0055490D01*
X0161209Y0055607D01*
X0161102Y0055727D01*
X0160998Y0055849D01*
X0160897Y0055974D01*
X0160799Y0056102D01*
X0160704Y0056232D01*
X0160612Y0056364D01*
X0160524Y0056498D01*
X0160439Y0056635D01*
X0160357Y0056773D01*
X0160279Y0056914D01*
X0160205Y0057056D01*
X0160134Y0057200D01*
X0160066Y0057346D01*
X0160003Y0057494D01*
X0159942Y0057643D01*
X0159886Y0057794D01*
X0159833Y0057946D01*
X0159784Y0058099D01*
X0159739Y0058253D01*
X0159698Y0058408D01*
X0159660Y0058565D01*
X0159627Y0058722D01*
X0159597Y0058880D01*
X0159571Y0059039D01*
X0159550Y0059198D01*
X0159532Y0059358D01*
X0159518Y0059518D01*
X0159508Y0059679D01*
X0159502Y0059839D01*
X0159500Y0060000D01*
X0045000Y0005000D02*
X0045000Y0229961D01*
D11*
X0155000Y0080000D02*
X0155000Y0040000D01*
X0210000Y0040000D01*
X0210000Y0080000D01*
X0155000Y0080000D01*
X0155000Y0079308D02*
X0210000Y0079308D01*
X0210000Y0078109D02*
X0155000Y0078109D01*
X0155000Y0076911D02*
X0210000Y0076911D01*
X0210000Y0075712D02*
X0155000Y0075712D01*
X0155000Y0074514D02*
X0210000Y0074514D01*
X0210000Y0073315D02*
X0155000Y0073315D01*
X0155000Y0072117D02*
X0210000Y0072117D01*
X0210000Y0070918D02*
X0155000Y0070918D01*
X0155000Y0069720D02*
X0210000Y0069720D01*
X0210000Y0068521D02*
X0155000Y0068521D01*
X0155000Y0067323D02*
X0210000Y0067323D01*
X0210000Y0066124D02*
X0155000Y0066124D01*
X0155000Y0064926D02*
X0210000Y0064926D01*
X0210000Y0063727D02*
X0155000Y0063727D01*
X0155000Y0062529D02*
X0210000Y0062529D01*
X0210000Y0061330D02*
X0155000Y0061330D01*
X0155000Y0060132D02*
X0210000Y0060132D01*
X0210000Y0058933D02*
X0155000Y0058933D01*
X0155000Y0057734D02*
X0210000Y0057734D01*
X0210000Y0056536D02*
X0155000Y0056536D01*
X0155000Y0055337D02*
X0210000Y0055337D01*
X0210000Y0054139D02*
X0155000Y0054139D01*
X0155000Y0052940D02*
X0210000Y0052940D01*
X0210000Y0051742D02*
X0155000Y0051742D01*
X0155000Y0050543D02*
X0210000Y0050543D01*
X0210000Y0049345D02*
X0155000Y0049345D01*
X0155000Y0048146D02*
X0210000Y0048146D01*
X0210000Y0046948D02*
X0155000Y0046948D01*
X0155000Y0045749D02*
X0210000Y0045749D01*
X0210000Y0044551D02*
X0155000Y0044551D01*
X0155000Y0043352D02*
X0210000Y0043352D01*
X0210000Y0042154D02*
X0155000Y0042154D01*
X0155000Y0040955D02*
X0210000Y0040955D01*
D12*
X0350000Y0231250D02*
X0045000Y0231250D01*
X0045000Y0230000D01*
X0350000Y0231250D02*
X0365000Y0240000D01*
X0420000Y0240000D01*
X0435000Y0230000D01*
D13*
X0410250Y0218750D03*
X0400250Y0218750D03*
X0400250Y0208750D03*
X0410250Y0208750D03*
X0410250Y0198750D03*
X0400250Y0198750D03*
X0400250Y0188750D03*
X0410250Y0188750D03*
X0410250Y0178750D03*
X0400250Y0178750D03*
X0400250Y0168750D03*
X0410250Y0168750D03*
X0410250Y0158750D03*
X0400250Y0158750D03*
X0400250Y0148750D03*
X0410250Y0148750D03*
X0410250Y0138750D03*
X0400250Y0138750D03*
X0400250Y0128750D03*
X0410250Y0128750D03*
X0410250Y0118750D03*
X0400250Y0118750D03*
X0400250Y0108750D03*
X0410250Y0108750D03*
X0410250Y0098750D03*
X0400250Y0098750D03*
X0400250Y0088750D03*
X0410250Y0088750D03*
X0410250Y0078750D03*
X0400250Y0078750D03*
X0400250Y0068750D03*
X0410250Y0068750D03*
X0410250Y0058750D03*
X0400250Y0058750D03*
X0400250Y0048750D03*
X0410250Y0048750D03*
X0390250Y0028750D03*
X0380250Y0028750D03*
X0370250Y0028750D03*
X0360250Y0028750D03*
X0350250Y0028750D03*
X0340250Y0028750D03*
X0330250Y0028750D03*
X0320250Y0028750D03*
X0300250Y0028750D03*
X0290250Y0028750D03*
X0280250Y0028750D03*
X0270250Y0028750D03*
X0260250Y0028750D03*
X0250250Y0028750D03*
X0240250Y0028750D03*
X0230250Y0028750D03*
X0210250Y0028750D03*
X0200250Y0028750D03*
X0190250Y0028750D03*
X0180250Y0028750D03*
X0170250Y0028750D03*
X0160250Y0028750D03*
X0164250Y0218750D03*
X0154250Y0218750D03*
X0144250Y0218750D03*
X0134250Y0218750D03*
X0124250Y0218750D03*
X0174250Y0218750D03*
X0184250Y0218750D03*
X0194250Y0218750D03*
X0210250Y0218750D03*
X0220250Y0218750D03*
X0230250Y0218750D03*
X0240250Y0218750D03*
X0250250Y0218750D03*
X0260250Y0218750D03*
X0270250Y0218750D03*
X0280250Y0218750D03*
X0300250Y0218750D03*
X0310250Y0218750D03*
X0320250Y0218750D03*
X0330250Y0218750D03*
X0340250Y0218750D03*
X0350250Y0218750D03*
X0360250Y0218750D03*
X0370250Y0218750D03*
D14*
X0294500Y0019000D03*
X0204500Y0019000D03*
X0114472Y0018949D03*
D15*
X0124472Y0018949D03*
X0134500Y0018996D03*
X0144500Y0019000D03*
X0154500Y0019000D03*
X0164500Y0019000D03*
X0174500Y0019000D03*
X0184500Y0019000D03*
X0214500Y0019000D03*
X0224500Y0019000D03*
X0234500Y0019000D03*
X0244500Y0019000D03*
X0254500Y0019000D03*
X0264500Y0019000D03*
X0274500Y0019000D03*
X0304500Y0019000D03*
X0314500Y0019000D03*
X0324500Y0019000D03*
X0334500Y0019000D03*
X0344500Y0019000D03*
X0354500Y0019000D03*
X0364500Y0019000D03*
D16*
X0374500Y0039000D03*
X0384500Y0049000D03*
X0254500Y0129000D03*
X0254500Y0209000D03*
X0168500Y0209000D03*
X0344500Y0209000D03*
X0374500Y0209000D03*
X0097063Y0056953D03*
D17*
X0254500Y0109000D03*
X0264500Y0109000D03*
X0264500Y0119000D03*
X0254500Y0119000D03*
X0264500Y0129000D03*
X0374500Y0129000D03*
X0384500Y0129000D03*
X0384500Y0119000D03*
X0374500Y0119000D03*
X0374500Y0109000D03*
X0384500Y0109000D03*
X0384500Y0099000D03*
X0374500Y0099000D03*
X0374500Y0089000D03*
X0384500Y0089000D03*
X0384500Y0079000D03*
X0374500Y0079000D03*
X0374500Y0069000D03*
X0384500Y0069000D03*
X0384500Y0059000D03*
X0374500Y0059000D03*
X0374500Y0049000D03*
X0384500Y0039000D03*
X0384500Y0139000D03*
X0374500Y0139000D03*
X0374500Y0149000D03*
X0384500Y0149000D03*
X0384500Y0159000D03*
X0374500Y0159000D03*
X0374500Y0169000D03*
X0384500Y0169000D03*
X0384500Y0179000D03*
X0374500Y0179000D03*
X0374500Y0189000D03*
X0384500Y0189000D03*
X0384500Y0199000D03*
X0374500Y0199000D03*
X0384500Y0209000D03*
X0334500Y0209000D03*
X0324500Y0209000D03*
X0314500Y0209000D03*
X0304500Y0209000D03*
X0294500Y0209000D03*
X0284500Y0209000D03*
X0274500Y0209000D03*
X0244500Y0209000D03*
X0234500Y0209000D03*
X0224500Y0209000D03*
X0214500Y0209000D03*
X0204500Y0209000D03*
X0194500Y0209000D03*
X0184500Y0209000D03*
X0158500Y0209000D03*
X0148500Y0209000D03*
X0138500Y0209000D03*
X0128500Y0209000D03*
X0118500Y0209000D03*
X0108500Y0209000D03*
X0098500Y0209000D03*
X0088500Y0209000D03*
X0078500Y0209000D03*
D18*
X0097063Y0076953D03*
X0107063Y0076953D03*
X0107063Y0066953D03*
X0097063Y0066953D03*
X0107063Y0056953D03*
D19*
X0315000Y0162200D02*
X0315000Y0167800D01*
X0325000Y0167800D02*
X0325000Y0162200D01*
X0335000Y0162200D02*
X0335000Y0167800D01*
X0345000Y0167800D02*
X0345000Y0162200D01*
X0345000Y0192200D02*
X0345000Y0197800D01*
X0335000Y0197800D02*
X0335000Y0192200D01*
X0325000Y0192200D02*
X0325000Y0197800D01*
X0315000Y0197800D02*
X0315000Y0192200D01*
D20*
X0228400Y0070000D02*
X0221600Y0070000D01*
X0221600Y0060000D02*
X0228400Y0060000D01*
X0228400Y0050000D02*
X0221600Y0050000D01*
D21*
X0166000Y0060000D03*
D22*
X0170000Y0108750D03*
X0160000Y0108750D03*
X0150000Y0108750D03*
X0140000Y0108750D03*
X0130000Y0108750D03*
X0115000Y0108750D03*
X0105000Y0108750D03*
X0095000Y0108750D03*
X0085000Y0108750D03*
X0075000Y0108750D03*
X0065000Y0108750D03*
X0065000Y0158750D03*
X0075000Y0158750D03*
X0085000Y0158750D03*
X0095000Y0158750D03*
X0105000Y0158750D03*
X0115000Y0158750D03*
X0130000Y0158750D03*
X0140000Y0158750D03*
X0150000Y0158750D03*
X0160000Y0158750D03*
X0170000Y0158750D03*
X0180000Y0158750D03*
X0195000Y0158750D03*
X0205000Y0158750D03*
X0215000Y0158750D03*
X0225000Y0158750D03*
X0235000Y0158750D03*
X0245000Y0158750D03*
X0245000Y0108750D03*
X0235000Y0108750D03*
X0225000Y0108750D03*
X0215000Y0108750D03*
X0205000Y0108750D03*
X0195000Y0108750D03*
X0180000Y0108750D03*
X0375000Y0018750D03*
X0385000Y0018750D03*
X0395000Y0018750D03*
X0405000Y0018750D03*
X0415000Y0018750D03*
X0425000Y0018750D03*
X0422500Y0107500D03*
X0422500Y0117500D03*
X0422500Y0127500D03*
X0422500Y0137500D03*
X0422500Y0147500D03*
X0422500Y0157500D03*
D23*
X0357687Y0067500D03*
X0349813Y0067500D03*
X0338937Y0067500D03*
X0331063Y0067500D03*
X0331063Y0056250D03*
X0338937Y0056250D03*
X0349813Y0056250D03*
X0357687Y0056250D03*
X0357687Y0045000D03*
X0349813Y0045000D03*
X0338937Y0045000D03*
X0331063Y0045000D03*
M02*
