%
M48
M72
T01C0.01378
T02C0.03200
T03C0.03937
T04C0.04000
T05C0.04200
T06C0.04400
T07C0.13000
%
T01
X275000Y110000
X225000Y135000
X225000Y145000
X215000Y145000
X270000Y150000
X210000Y190000
X210000Y195000
X210000Y200000
X220000Y202689
X225000Y195000
X195000Y185000
X190000Y194622
X180000Y195000
X165000Y190000
X90000Y152439
X100000Y143750
X105000Y138750
X125000Y143750
X245000Y215000
X255000Y223750
X345000Y135000
X350000Y130000
X345000Y125000
X325000Y60000
X345000Y50000
X365000Y55000
X315000Y35000
X305000Y35000
T02
X315000Y195000
X325000Y195000
X335000Y195000
X345000Y195000
X345000Y165000
X335000Y165000
X325000Y165000
X315000Y165000
T03
X410250Y218750
X400250Y218750
X400250Y208750
X410250Y208750
X410250Y198750
X400250Y198750
X400250Y188750
X410250Y188750
X410250Y178750
X400250Y178750
X400250Y168750
X410250Y168750
X410250Y158750
X400250Y158750
X400250Y148750
X410250Y148750
X410250Y138750
X400250Y138750
X400250Y128750
X410250Y128750
X410250Y118750
X400250Y118750
X400250Y108750
X410250Y108750
X410250Y98750
X400250Y98750
X400250Y88750
X410250Y88750
X410250Y78750
X400250Y78750
X400250Y68750
X410250Y68750
X410250Y58750
X400250Y58750
X400250Y48750
X410250Y48750
X390250Y28750
X380250Y28750
X370250Y28750
X360250Y28750
X350250Y28750
X340250Y28750
X330250Y28750
X320250Y28750
X300250Y28750
X290250Y28750
X280250Y28750
X270250Y28750
X260250Y28750
X250250Y28750
X240250Y28750
X230250Y28750
X210250Y28750
X200250Y28750
X190250Y28750
X180250Y28750
X170250Y28750
X160250Y28750
X124250Y218750
X134250Y218750
X144250Y218750
X154250Y218750
X164250Y218750
X174250Y218750
X184250Y218750
X194250Y218750
X210250Y218750
X220250Y218750
X230250Y218750
X240250Y218750
X250250Y218750
X260250Y218750
X270250Y218750
X280250Y218750
X300250Y218750
X310250Y218750
X320250Y218750
X330250Y218750
X340250Y218750
X350250Y218750
X360250Y218750
X370250Y218750
T04
X65000Y158750
X75000Y158750
X85000Y158750
X95000Y158750
X105000Y158750
X115000Y158750
X130000Y158750
X140000Y158750
X150000Y158750
X160000Y158750
X170000Y158750
X180000Y158750
X195000Y158750
X205000Y158750
X215000Y158750
X225000Y158750
X235000Y158750
X245000Y158750
X245000Y118750
X235000Y118750
X225000Y118750
X215000Y118750
X205000Y118750
X195000Y118750
X180000Y118750
X170000Y118750
X160000Y118750
X150000Y118750
X140000Y118750
X130000Y118750
X115000Y118750
X105000Y118750
X95000Y118750
X85000Y118750
X75000Y118750
X65000Y118750
X154500Y19000
X144500Y19000
X134500Y18996
X124472Y18949
X114472Y18949
X164500Y19000
X174500Y19000
X184500Y19000
X204500Y19000
X214500Y19000
X224500Y19000
X234500Y19000
X244500Y19000
X254500Y19000
X264500Y19000
X274500Y19000
X294500Y19000
X304500Y19000
X314500Y19000
X324500Y19000
X334500Y19000
X344500Y19000
X354500Y19000
X364500Y19000
X375000Y18750
X385000Y18750
X395000Y18750
X405000Y18750
X415000Y18750
X425000Y18750
X422500Y157500
X422500Y147500
X422500Y137500
X422500Y127500
X422500Y117500
X422500Y107500
T05
X78500Y209000
X88500Y209000
X98500Y209000
X108500Y209000
X118500Y209000
X128500Y209000
X138500Y209000
X148500Y209000
X158500Y209000
X168500Y209000
X184500Y209000
X194500Y209000
X204500Y209000
X214500Y209000
X224500Y209000
X234500Y209000
X244500Y209000
X254500Y209000
X274500Y209000
X284500Y209000
X294500Y209000
X304500Y209000
X314500Y209000
X324500Y209000
X334500Y209000
X344500Y209000
X374500Y209000
X384500Y209000
X384500Y199000
X374500Y199000
X374500Y189000
X384500Y189000
X384500Y179000
X374500Y179000
X374500Y169000
X384500Y169000
X384500Y159000
X374500Y159000
X374500Y149000
X384500Y149000
X384500Y139000
X374500Y139000
X374500Y129000
X384500Y129000
X384500Y119000
X374500Y119000
X374500Y109000
X384500Y109000
X384500Y99000
X374500Y99000
X374500Y89000
X384500Y89000
X384500Y79000
X374500Y79000
X374500Y69000
X384500Y69000
X384500Y59000
X374500Y59000
X374500Y49000
X384500Y49000
X384500Y39000
X374500Y39000
X264500Y129000
X254500Y129000
X254500Y119000
X264500Y119000
X264500Y109000
X254500Y109000
X107063Y56953
X97063Y56953
X97063Y66953
X107063Y66953
X107063Y76953
X97063Y76953
T06
X225000Y60000
X225000Y50000
X225000Y70000
T07
X166000Y60000
M30
