G75*
%MOIN*%
%OFA0B0*%
%FSLAX25Y25*%
%IPPOS*%
%LPD*%
%AMOC8*
5,1,8,0,0,1.08239X$1,22.5*
%
%ADD10C,0.00000*%
%ADD11C,0.00300*%
%ADD12C,0.00400*%
%ADD13C,0.00600*%
%ADD14C,0.00200*%
%ADD15C,0.00800*%
%ADD16C,0.01200*%
%ADD17C,0.01600*%
%ADD18C,0.00100*%
%ADD19C,0.00500*%
%ADD20R,0.02500X0.03000*%
%ADD21R,0.11000X0.05000*%
%ADD22C,0.00700*%
%ADD23R,0.02559X0.05512*%
%ADD24C,0.00591*%
D10*
X0045000Y0005000D02*
X0434951Y0005000D01*
X0434951Y0229961D01*
X0159500Y0060000D02*
X0159502Y0060161D01*
X0159508Y0060321D01*
X0159518Y0060482D01*
X0159532Y0060642D01*
X0159550Y0060802D01*
X0159571Y0060961D01*
X0159597Y0061120D01*
X0159627Y0061278D01*
X0159660Y0061435D01*
X0159698Y0061592D01*
X0159739Y0061747D01*
X0159784Y0061901D01*
X0159833Y0062054D01*
X0159886Y0062206D01*
X0159942Y0062357D01*
X0160003Y0062506D01*
X0160066Y0062654D01*
X0160134Y0062800D01*
X0160205Y0062944D01*
X0160279Y0063086D01*
X0160357Y0063227D01*
X0160439Y0063365D01*
X0160524Y0063502D01*
X0160612Y0063636D01*
X0160704Y0063768D01*
X0160799Y0063898D01*
X0160897Y0064026D01*
X0160998Y0064151D01*
X0161102Y0064273D01*
X0161209Y0064393D01*
X0161319Y0064510D01*
X0161432Y0064625D01*
X0161548Y0064736D01*
X0161667Y0064845D01*
X0161788Y0064950D01*
X0161912Y0065053D01*
X0162038Y0065153D01*
X0162166Y0065249D01*
X0162297Y0065342D01*
X0162431Y0065432D01*
X0162566Y0065519D01*
X0162704Y0065602D01*
X0162843Y0065682D01*
X0162985Y0065758D01*
X0163128Y0065831D01*
X0163273Y0065900D01*
X0163420Y0065966D01*
X0163568Y0066028D01*
X0163718Y0066086D01*
X0163869Y0066141D01*
X0164022Y0066192D01*
X0164176Y0066239D01*
X0164331Y0066282D01*
X0164487Y0066321D01*
X0164643Y0066357D01*
X0164801Y0066388D01*
X0164959Y0066416D01*
X0165118Y0066440D01*
X0165278Y0066460D01*
X0165438Y0066476D01*
X0165598Y0066488D01*
X0165759Y0066496D01*
X0165920Y0066500D01*
X0166080Y0066500D01*
X0166241Y0066496D01*
X0166402Y0066488D01*
X0166562Y0066476D01*
X0166722Y0066460D01*
X0166882Y0066440D01*
X0167041Y0066416D01*
X0167199Y0066388D01*
X0167357Y0066357D01*
X0167513Y0066321D01*
X0167669Y0066282D01*
X0167824Y0066239D01*
X0167978Y0066192D01*
X0168131Y0066141D01*
X0168282Y0066086D01*
X0168432Y0066028D01*
X0168580Y0065966D01*
X0168727Y0065900D01*
X0168872Y0065831D01*
X0169015Y0065758D01*
X0169157Y0065682D01*
X0169296Y0065602D01*
X0169434Y0065519D01*
X0169569Y0065432D01*
X0169703Y0065342D01*
X0169834Y0065249D01*
X0169962Y0065153D01*
X0170088Y0065053D01*
X0170212Y0064950D01*
X0170333Y0064845D01*
X0170452Y0064736D01*
X0170568Y0064625D01*
X0170681Y0064510D01*
X0170791Y0064393D01*
X0170898Y0064273D01*
X0171002Y0064151D01*
X0171103Y0064026D01*
X0171201Y0063898D01*
X0171296Y0063768D01*
X0171388Y0063636D01*
X0171476Y0063502D01*
X0171561Y0063365D01*
X0171643Y0063227D01*
X0171721Y0063086D01*
X0171795Y0062944D01*
X0171866Y0062800D01*
X0171934Y0062654D01*
X0171997Y0062506D01*
X0172058Y0062357D01*
X0172114Y0062206D01*
X0172167Y0062054D01*
X0172216Y0061901D01*
X0172261Y0061747D01*
X0172302Y0061592D01*
X0172340Y0061435D01*
X0172373Y0061278D01*
X0172403Y0061120D01*
X0172429Y0060961D01*
X0172450Y0060802D01*
X0172468Y0060642D01*
X0172482Y0060482D01*
X0172492Y0060321D01*
X0172498Y0060161D01*
X0172500Y0060000D01*
X0172498Y0059839D01*
X0172492Y0059679D01*
X0172482Y0059518D01*
X0172468Y0059358D01*
X0172450Y0059198D01*
X0172429Y0059039D01*
X0172403Y0058880D01*
X0172373Y0058722D01*
X0172340Y0058565D01*
X0172302Y0058408D01*
X0172261Y0058253D01*
X0172216Y0058099D01*
X0172167Y0057946D01*
X0172114Y0057794D01*
X0172058Y0057643D01*
X0171997Y0057494D01*
X0171934Y0057346D01*
X0171866Y0057200D01*
X0171795Y0057056D01*
X0171721Y0056914D01*
X0171643Y0056773D01*
X0171561Y0056635D01*
X0171476Y0056498D01*
X0171388Y0056364D01*
X0171296Y0056232D01*
X0171201Y0056102D01*
X0171103Y0055974D01*
X0171002Y0055849D01*
X0170898Y0055727D01*
X0170791Y0055607D01*
X0170681Y0055490D01*
X0170568Y0055375D01*
X0170452Y0055264D01*
X0170333Y0055155D01*
X0170212Y0055050D01*
X0170088Y0054947D01*
X0169962Y0054847D01*
X0169834Y0054751D01*
X0169703Y0054658D01*
X0169569Y0054568D01*
X0169434Y0054481D01*
X0169296Y0054398D01*
X0169157Y0054318D01*
X0169015Y0054242D01*
X0168872Y0054169D01*
X0168727Y0054100D01*
X0168580Y0054034D01*
X0168432Y0053972D01*
X0168282Y0053914D01*
X0168131Y0053859D01*
X0167978Y0053808D01*
X0167824Y0053761D01*
X0167669Y0053718D01*
X0167513Y0053679D01*
X0167357Y0053643D01*
X0167199Y0053612D01*
X0167041Y0053584D01*
X0166882Y0053560D01*
X0166722Y0053540D01*
X0166562Y0053524D01*
X0166402Y0053512D01*
X0166241Y0053504D01*
X0166080Y0053500D01*
X0165920Y0053500D01*
X0165759Y0053504D01*
X0165598Y0053512D01*
X0165438Y0053524D01*
X0165278Y0053540D01*
X0165118Y0053560D01*
X0164959Y0053584D01*
X0164801Y0053612D01*
X0164643Y0053643D01*
X0164487Y0053679D01*
X0164331Y0053718D01*
X0164176Y0053761D01*
X0164022Y0053808D01*
X0163869Y0053859D01*
X0163718Y0053914D01*
X0163568Y0053972D01*
X0163420Y0054034D01*
X0163273Y0054100D01*
X0163128Y0054169D01*
X0162985Y0054242D01*
X0162843Y0054318D01*
X0162704Y0054398D01*
X0162566Y0054481D01*
X0162431Y0054568D01*
X0162297Y0054658D01*
X0162166Y0054751D01*
X0162038Y0054847D01*
X0161912Y0054947D01*
X0161788Y0055050D01*
X0161667Y0055155D01*
X0161548Y0055264D01*
X0161432Y0055375D01*
X0161319Y0055490D01*
X0161209Y0055607D01*
X0161102Y0055727D01*
X0160998Y0055849D01*
X0160897Y0055974D01*
X0160799Y0056102D01*
X0160704Y0056232D01*
X0160612Y0056364D01*
X0160524Y0056498D01*
X0160439Y0056635D01*
X0160357Y0056773D01*
X0160279Y0056914D01*
X0160205Y0057056D01*
X0160134Y0057200D01*
X0160066Y0057346D01*
X0160003Y0057494D01*
X0159942Y0057643D01*
X0159886Y0057794D01*
X0159833Y0057946D01*
X0159784Y0058099D01*
X0159739Y0058253D01*
X0159698Y0058408D01*
X0159660Y0058565D01*
X0159627Y0058722D01*
X0159597Y0058880D01*
X0159571Y0059039D01*
X0159550Y0059198D01*
X0159532Y0059358D01*
X0159518Y0059518D01*
X0159508Y0059679D01*
X0159502Y0059839D01*
X0159500Y0060000D01*
X0045000Y0005000D02*
X0045000Y0229961D01*
D11*
X0088636Y0198369D02*
X0089870Y0199603D01*
X0091104Y0198369D01*
X0091104Y0195900D01*
X0092319Y0195900D02*
X0093553Y0195900D01*
X0092936Y0195900D02*
X0092936Y0199603D01*
X0092319Y0199603D01*
X0091104Y0197752D02*
X0088636Y0197752D01*
X0088636Y0198369D02*
X0088636Y0195900D01*
X0094774Y0195900D02*
X0096009Y0195900D01*
X0095391Y0195900D02*
X0095391Y0199603D01*
X0094774Y0199603D01*
X0097230Y0197752D02*
X0097230Y0196517D01*
X0097847Y0195900D01*
X0099081Y0195900D01*
X0099698Y0196517D01*
X0099698Y0197752D01*
X0099081Y0198369D01*
X0097847Y0198369D01*
X0097230Y0197752D01*
X0100913Y0198369D02*
X0100913Y0196517D01*
X0101530Y0195900D01*
X0102147Y0196517D01*
X0102764Y0195900D01*
X0103381Y0196517D01*
X0103381Y0198369D01*
X0104596Y0197752D02*
X0105213Y0198369D01*
X0107065Y0198369D01*
X0106447Y0197134D02*
X0105213Y0197134D01*
X0104596Y0197752D01*
X0104596Y0195900D02*
X0106447Y0195900D01*
X0107065Y0196517D01*
X0106447Y0197134D01*
X0108292Y0193603D02*
X0108292Y0189900D01*
X0106441Y0189900D01*
X0105824Y0190517D01*
X0105824Y0191752D01*
X0106441Y0192369D01*
X0108292Y0192369D01*
X0109507Y0192369D02*
X0109507Y0190517D01*
X0110124Y0189900D01*
X0111975Y0189900D01*
X0111975Y0192369D01*
X0113190Y0192369D02*
X0113807Y0192369D01*
X0113807Y0189900D01*
X0113190Y0189900D02*
X0114424Y0189900D01*
X0115645Y0189900D02*
X0115645Y0192369D01*
X0117497Y0192369D01*
X0118114Y0191752D01*
X0118114Y0189900D01*
X0119328Y0190517D02*
X0119946Y0189900D01*
X0121180Y0189900D01*
X0121797Y0190517D01*
X0121797Y0191752D01*
X0121180Y0192369D01*
X0119946Y0192369D01*
X0119328Y0191752D01*
X0119328Y0190517D01*
X0124246Y0194666D02*
X0124863Y0194666D01*
X0125480Y0195283D01*
X0125480Y0198369D01*
X0123629Y0198369D01*
X0123012Y0197752D01*
X0123012Y0196517D01*
X0123629Y0195900D01*
X0125480Y0195900D01*
X0126695Y0196517D02*
X0126695Y0197752D01*
X0127312Y0198369D01*
X0128546Y0198369D01*
X0129163Y0197752D01*
X0129163Y0197134D01*
X0126695Y0197134D01*
X0126695Y0196517D02*
X0127312Y0195900D01*
X0128546Y0195900D01*
X0129163Y0193603D02*
X0129163Y0189900D01*
X0127312Y0189900D01*
X0126695Y0190517D01*
X0126695Y0191752D01*
X0127312Y0192369D01*
X0129163Y0192369D01*
X0130378Y0192369D02*
X0130378Y0190517D01*
X0130995Y0189900D01*
X0132847Y0189900D01*
X0132847Y0192369D01*
X0134061Y0191752D02*
X0134678Y0192369D01*
X0135913Y0192369D01*
X0136530Y0191752D01*
X0136530Y0191134D01*
X0134061Y0191134D01*
X0134061Y0190517D02*
X0134061Y0191752D01*
X0134061Y0190517D02*
X0134678Y0189900D01*
X0135913Y0189900D01*
X0137744Y0189900D02*
X0138361Y0189900D01*
X0138361Y0190517D01*
X0137744Y0190517D01*
X0137744Y0189900D01*
X0139586Y0189900D02*
X0140203Y0189900D01*
X0140203Y0190517D01*
X0139586Y0190517D01*
X0139586Y0189900D01*
X0141427Y0189900D02*
X0141427Y0190517D01*
X0142044Y0190517D01*
X0142044Y0189900D01*
X0141427Y0189900D01*
X0146952Y0190517D02*
X0147569Y0189900D01*
X0148186Y0190517D01*
X0148804Y0189900D01*
X0149421Y0190517D01*
X0149421Y0192369D01*
X0150635Y0192369D02*
X0151252Y0192369D01*
X0151252Y0189900D01*
X0150635Y0189900D02*
X0151870Y0189900D01*
X0153708Y0190517D02*
X0154325Y0189900D01*
X0153708Y0190517D02*
X0153708Y0192986D01*
X0153091Y0192369D02*
X0154325Y0192369D01*
X0155546Y0191752D02*
X0156163Y0192369D01*
X0157398Y0192369D01*
X0158015Y0191752D01*
X0158015Y0189900D01*
X0155546Y0189900D02*
X0155546Y0193603D01*
X0156167Y0195900D02*
X0157401Y0197134D01*
X0157401Y0199603D01*
X0154932Y0199603D02*
X0154932Y0197134D01*
X0156167Y0195900D01*
X0153718Y0196517D02*
X0153101Y0195900D01*
X0151866Y0195900D01*
X0151249Y0196517D01*
X0151249Y0197752D02*
X0152483Y0198369D01*
X0153101Y0198369D01*
X0153718Y0197752D01*
X0153718Y0196517D01*
X0151249Y0197752D02*
X0151249Y0199603D01*
X0153718Y0199603D01*
X0151252Y0194220D02*
X0151252Y0193603D01*
X0146952Y0192369D02*
X0146952Y0190517D01*
X0146351Y0195900D02*
X0144500Y0195900D01*
X0143883Y0196517D01*
X0144500Y0197134D01*
X0146351Y0197134D01*
X0146351Y0197752D02*
X0146351Y0195900D01*
X0146351Y0197752D02*
X0145734Y0198369D01*
X0144500Y0198369D01*
X0138979Y0197752D02*
X0137744Y0197752D01*
X0136530Y0197752D02*
X0135913Y0198369D01*
X0134678Y0198369D01*
X0134061Y0197752D01*
X0134061Y0196517D01*
X0134678Y0195900D01*
X0135913Y0195900D01*
X0136530Y0196517D01*
X0136530Y0197752D01*
X0138361Y0198986D02*
X0138979Y0199603D01*
X0138361Y0198986D02*
X0138361Y0195900D01*
X0121797Y0195900D02*
X0119946Y0195900D01*
X0119328Y0196517D01*
X0119946Y0197134D01*
X0121797Y0197134D01*
X0121797Y0197752D02*
X0121797Y0195900D01*
X0121797Y0197752D02*
X0121180Y0198369D01*
X0119946Y0198369D01*
X0118114Y0198369D02*
X0116262Y0198369D01*
X0115645Y0197752D01*
X0116262Y0197134D01*
X0117497Y0197134D01*
X0118114Y0196517D01*
X0117497Y0195900D01*
X0115645Y0195900D01*
X0114431Y0195900D02*
X0114431Y0198369D01*
X0111962Y0198369D02*
X0111962Y0196517D01*
X0112579Y0195900D01*
X0114431Y0195900D01*
X0113807Y0194220D02*
X0113807Y0193603D01*
X0104606Y0192369D02*
X0103989Y0192369D01*
X0102754Y0191134D01*
X0101540Y0191134D02*
X0099688Y0191134D01*
X0099071Y0190517D01*
X0099688Y0189900D01*
X0101540Y0189900D01*
X0101540Y0191752D01*
X0100923Y0192369D01*
X0099688Y0192369D01*
X0102754Y0192369D02*
X0102754Y0189900D01*
X0105213Y0181603D02*
X0104596Y0180986D01*
X0104596Y0180369D01*
X0105213Y0179752D01*
X0106447Y0179752D01*
X0107065Y0179134D01*
X0107065Y0178517D01*
X0106447Y0177900D01*
X0105213Y0177900D01*
X0104596Y0178517D01*
X0105213Y0181603D02*
X0106447Y0181603D01*
X0107065Y0180986D01*
X0108279Y0179752D02*
X0108896Y0180369D01*
X0110131Y0180369D01*
X0110748Y0179752D01*
X0110748Y0179134D01*
X0108279Y0179134D01*
X0108279Y0178517D02*
X0108279Y0179752D01*
X0108279Y0178517D02*
X0108896Y0177900D01*
X0110131Y0177900D01*
X0111962Y0178517D02*
X0112579Y0177900D01*
X0113814Y0177900D01*
X0114431Y0179134D02*
X0111962Y0179134D01*
X0111962Y0178517D02*
X0111962Y0179752D01*
X0112579Y0180369D01*
X0113814Y0180369D01*
X0114431Y0179752D01*
X0114431Y0179134D01*
X0119328Y0180369D02*
X0120563Y0180369D01*
X0119946Y0180986D02*
X0119946Y0178517D01*
X0120563Y0177900D01*
X0121784Y0177900D02*
X0121784Y0181603D01*
X0122401Y0180369D02*
X0123635Y0180369D01*
X0124253Y0179752D01*
X0124253Y0177900D01*
X0125467Y0178517D02*
X0126084Y0177900D01*
X0127319Y0177900D01*
X0127936Y0179134D02*
X0125467Y0179134D01*
X0125467Y0178517D02*
X0125467Y0179752D01*
X0126084Y0180369D01*
X0127319Y0180369D01*
X0127936Y0179752D01*
X0127936Y0179134D01*
X0132833Y0177900D02*
X0134068Y0179134D01*
X0135302Y0177900D01*
X0135302Y0181603D01*
X0136516Y0180369D02*
X0137134Y0180369D01*
X0137134Y0177900D01*
X0137751Y0177900D02*
X0136516Y0177900D01*
X0138972Y0177900D02*
X0138972Y0181603D01*
X0137134Y0181603D02*
X0137134Y0182220D01*
X0138972Y0179134D02*
X0140823Y0180369D01*
X0142041Y0180369D02*
X0142658Y0180369D01*
X0142658Y0177900D01*
X0142041Y0177900D02*
X0143276Y0177900D01*
X0140823Y0177900D02*
X0138972Y0179134D01*
X0142658Y0181603D02*
X0142658Y0182220D01*
X0148180Y0179752D02*
X0149414Y0179752D01*
X0150635Y0179752D02*
X0150635Y0178517D01*
X0151252Y0177900D01*
X0152487Y0177900D01*
X0153104Y0178517D01*
X0153104Y0179752D01*
X0152487Y0180369D01*
X0151252Y0180369D01*
X0150635Y0179752D01*
X0148797Y0180986D02*
X0148797Y0177900D01*
X0148797Y0180986D02*
X0149414Y0181603D01*
X0154318Y0180369D02*
X0154318Y0177900D01*
X0154318Y0179134D02*
X0155553Y0180369D01*
X0156170Y0180369D01*
X0161071Y0180369D02*
X0161071Y0177900D01*
X0162305Y0177900D02*
X0162305Y0179752D01*
X0162922Y0180369D01*
X0163539Y0179752D01*
X0163539Y0177900D01*
X0164754Y0178517D02*
X0165371Y0177900D01*
X0166605Y0177900D01*
X0167223Y0178517D01*
X0167223Y0179752D01*
X0166605Y0180369D01*
X0165371Y0180369D01*
X0164754Y0179752D01*
X0164754Y0178517D01*
X0162305Y0179752D02*
X0161688Y0180369D01*
X0161071Y0180369D01*
X0168437Y0180369D02*
X0168437Y0177900D01*
X0168437Y0179134D02*
X0169671Y0180369D01*
X0170289Y0180369D01*
X0171506Y0179752D02*
X0172123Y0180369D01*
X0173358Y0180369D01*
X0173975Y0179752D01*
X0173975Y0179134D01*
X0171506Y0179134D01*
X0171506Y0178517D02*
X0171506Y0179752D01*
X0171506Y0178517D02*
X0172123Y0177900D01*
X0173358Y0177900D01*
X0178873Y0177900D02*
X0180107Y0177900D01*
X0179490Y0177900D02*
X0179490Y0180369D01*
X0178873Y0180369D01*
X0179490Y0181603D02*
X0179490Y0182220D01*
X0181328Y0180369D02*
X0183180Y0180369D01*
X0183797Y0179752D01*
X0183797Y0177900D01*
X0185628Y0177900D02*
X0185628Y0180986D01*
X0186246Y0181603D01*
X0186246Y0179752D02*
X0185011Y0179752D01*
X0187467Y0179752D02*
X0187467Y0178517D01*
X0188084Y0177900D01*
X0189318Y0177900D01*
X0189935Y0178517D01*
X0189935Y0179752D01*
X0189318Y0180369D01*
X0188084Y0180369D01*
X0187467Y0179752D01*
X0191150Y0180369D02*
X0191150Y0177900D01*
X0191150Y0179134D02*
X0192384Y0180369D01*
X0193001Y0180369D01*
X0194219Y0180369D02*
X0194836Y0180369D01*
X0195453Y0179752D01*
X0196071Y0180369D01*
X0196688Y0179752D01*
X0196688Y0177900D01*
X0195453Y0177900D02*
X0195453Y0179752D01*
X0194219Y0180369D02*
X0194219Y0177900D01*
X0197902Y0178517D02*
X0198519Y0179134D01*
X0200371Y0179134D01*
X0200371Y0179752D02*
X0200371Y0177900D01*
X0198519Y0177900D01*
X0197902Y0178517D01*
X0198519Y0180369D02*
X0199754Y0180369D01*
X0200371Y0179752D01*
X0201585Y0180369D02*
X0202820Y0180369D01*
X0202202Y0180986D02*
X0202202Y0178517D01*
X0202820Y0177900D01*
X0204041Y0177900D02*
X0205275Y0177900D01*
X0204658Y0177900D02*
X0204658Y0180369D01*
X0204041Y0180369D01*
X0204658Y0181603D02*
X0204658Y0182220D01*
X0207113Y0180369D02*
X0206496Y0179752D01*
X0206496Y0178517D01*
X0207113Y0177900D01*
X0208348Y0177900D01*
X0208965Y0178517D01*
X0208965Y0179752D01*
X0208348Y0180369D01*
X0207113Y0180369D01*
X0210179Y0180369D02*
X0210179Y0177900D01*
X0210179Y0180369D02*
X0212031Y0180369D01*
X0212648Y0179752D01*
X0212648Y0177900D01*
X0213862Y0177900D02*
X0213862Y0178517D01*
X0214480Y0178517D01*
X0214480Y0177900D01*
X0213862Y0177900D01*
X0213862Y0179752D02*
X0213862Y0180369D01*
X0214480Y0180369D01*
X0214480Y0179752D01*
X0213862Y0179752D01*
X0214490Y0189900D02*
X0214490Y0191752D01*
X0213872Y0192369D01*
X0212021Y0192369D01*
X0212021Y0189900D01*
X0210806Y0190517D02*
X0210189Y0189900D01*
X0208955Y0189900D01*
X0208338Y0190517D01*
X0208338Y0191752D01*
X0208955Y0192369D01*
X0210189Y0192369D01*
X0210806Y0191752D01*
X0210806Y0190517D01*
X0207117Y0189900D02*
X0205882Y0189900D01*
X0206499Y0189900D02*
X0206499Y0192369D01*
X0205882Y0192369D01*
X0204661Y0192369D02*
X0203427Y0192369D01*
X0204044Y0192986D02*
X0204044Y0190517D01*
X0204661Y0189900D01*
X0202212Y0189900D02*
X0200361Y0189900D01*
X0199744Y0190517D01*
X0199744Y0191752D01*
X0200361Y0192369D01*
X0202212Y0192369D01*
X0197905Y0192369D02*
X0197905Y0189900D01*
X0197288Y0189900D02*
X0198523Y0189900D01*
X0197905Y0192369D02*
X0197288Y0192369D01*
X0196071Y0192369D02*
X0195453Y0192369D01*
X0194219Y0191134D01*
X0194219Y0189900D02*
X0194219Y0192369D01*
X0192998Y0192369D02*
X0191764Y0192369D01*
X0192381Y0192986D02*
X0192381Y0190517D01*
X0192998Y0189900D01*
X0190549Y0190517D02*
X0189932Y0191134D01*
X0188698Y0191134D01*
X0188080Y0191752D01*
X0188698Y0192369D01*
X0190549Y0192369D01*
X0190549Y0190517D02*
X0189932Y0189900D01*
X0188080Y0189900D01*
X0186866Y0191134D02*
X0184397Y0191134D01*
X0184397Y0190517D02*
X0184397Y0191752D01*
X0185014Y0192369D01*
X0186249Y0192369D01*
X0186866Y0191752D01*
X0186866Y0191134D01*
X0186249Y0189900D02*
X0185014Y0189900D01*
X0184397Y0190517D01*
X0183180Y0192369D02*
X0182562Y0192369D01*
X0181328Y0191134D01*
X0181328Y0189900D02*
X0181328Y0192369D01*
X0176430Y0191752D02*
X0176430Y0191134D01*
X0173962Y0191134D01*
X0173962Y0190517D02*
X0173962Y0191752D01*
X0174579Y0192369D01*
X0175813Y0192369D01*
X0176430Y0191752D01*
X0175813Y0189900D02*
X0174579Y0189900D01*
X0173962Y0190517D01*
X0172747Y0189900D02*
X0172747Y0191752D01*
X0172130Y0192369D01*
X0171513Y0191752D01*
X0171513Y0189900D01*
X0170279Y0189900D02*
X0170279Y0192369D01*
X0170896Y0192369D01*
X0171513Y0191752D01*
X0169064Y0191752D02*
X0168447Y0192369D01*
X0167213Y0192369D01*
X0166595Y0191752D01*
X0166595Y0190517D01*
X0167213Y0189900D01*
X0168447Y0189900D01*
X0169064Y0190517D01*
X0169064Y0191752D01*
X0165381Y0192369D02*
X0163529Y0192369D01*
X0162912Y0191752D01*
X0163529Y0191134D01*
X0164764Y0191134D01*
X0165381Y0190517D01*
X0164764Y0189900D01*
X0162912Y0189900D01*
X0162298Y0195900D02*
X0164150Y0195900D01*
X0164767Y0196517D01*
X0164150Y0197134D01*
X0162916Y0197134D01*
X0162298Y0197752D01*
X0162916Y0198369D01*
X0164767Y0198369D01*
X0165982Y0198369D02*
X0167216Y0198369D01*
X0166599Y0198986D02*
X0166599Y0196517D01*
X0167216Y0195900D01*
X0168437Y0196517D02*
X0169054Y0195900D01*
X0170289Y0195900D01*
X0170906Y0196517D01*
X0170906Y0197752D01*
X0170289Y0198369D01*
X0169054Y0198369D01*
X0168437Y0197752D01*
X0168437Y0196517D01*
X0172120Y0196517D02*
X0172120Y0197752D01*
X0172737Y0198369D01*
X0174589Y0198369D01*
X0175803Y0199603D02*
X0175803Y0195900D01*
X0174589Y0195900D02*
X0172737Y0195900D01*
X0172120Y0196517D01*
X0175803Y0197134D02*
X0177655Y0198369D01*
X0175803Y0197134D02*
X0177655Y0195900D01*
X0182556Y0195900D02*
X0182556Y0199603D01*
X0184407Y0199603D01*
X0185024Y0198986D01*
X0185024Y0197752D01*
X0184407Y0197134D01*
X0182556Y0197134D01*
X0183790Y0197134D02*
X0185024Y0195900D01*
X0186239Y0195900D02*
X0186239Y0198369D01*
X0187473Y0199603D01*
X0188708Y0198369D01*
X0188708Y0195900D01*
X0189922Y0195900D02*
X0189922Y0199603D01*
X0191156Y0198369D01*
X0192391Y0199603D01*
X0192391Y0195900D01*
X0193605Y0195900D02*
X0193605Y0199603D01*
X0195457Y0199603D01*
X0196074Y0198986D01*
X0196074Y0197752D01*
X0195457Y0197134D01*
X0193605Y0197134D01*
X0197288Y0196517D02*
X0197905Y0195900D01*
X0199140Y0195900D01*
X0199757Y0196517D01*
X0199757Y0197134D01*
X0199140Y0197752D01*
X0197905Y0197752D01*
X0197288Y0198369D01*
X0197288Y0198986D01*
X0197905Y0199603D01*
X0199140Y0199603D01*
X0199757Y0198986D01*
X0204655Y0198369D02*
X0204655Y0196517D01*
X0205272Y0195900D01*
X0205889Y0196517D01*
X0206506Y0195900D01*
X0207123Y0196517D01*
X0207123Y0198369D01*
X0208338Y0198369D02*
X0208955Y0198369D01*
X0208955Y0195900D01*
X0208338Y0195900D02*
X0209572Y0195900D01*
X0211410Y0196517D02*
X0211410Y0198986D01*
X0210793Y0198369D02*
X0212028Y0198369D01*
X0213249Y0197752D02*
X0213866Y0198369D01*
X0215100Y0198369D01*
X0215717Y0197752D01*
X0215717Y0195900D01*
X0213249Y0195900D02*
X0213249Y0199603D01*
X0211410Y0196517D02*
X0212028Y0195900D01*
X0208955Y0199603D02*
X0208955Y0200220D01*
X0206499Y0194220D02*
X0206499Y0193603D01*
X0197905Y0193603D02*
X0197905Y0194220D01*
X0188708Y0197752D02*
X0186239Y0197752D01*
X0215704Y0191752D02*
X0216321Y0192369D01*
X0218173Y0192369D01*
X0217556Y0191134D02*
X0216321Y0191134D01*
X0215704Y0191752D01*
X0215704Y0189900D02*
X0217556Y0189900D01*
X0218173Y0190517D01*
X0217556Y0191134D01*
X0219387Y0190517D02*
X0219387Y0189900D01*
X0220004Y0189900D01*
X0220004Y0190517D01*
X0219387Y0190517D01*
X0221232Y0195900D02*
X0220615Y0196517D01*
X0221232Y0197134D01*
X0223084Y0197134D01*
X0223084Y0197752D02*
X0223084Y0195900D01*
X0221232Y0195900D01*
X0221232Y0198369D02*
X0222466Y0198369D01*
X0223084Y0197752D01*
X0224298Y0198369D02*
X0224298Y0195900D01*
X0224298Y0198369D02*
X0226150Y0198369D01*
X0226767Y0197752D01*
X0226767Y0195900D01*
X0181328Y0180369D02*
X0181328Y0177900D01*
X0132833Y0177900D02*
X0132833Y0181603D01*
X0122401Y0180369D02*
X0121784Y0179752D01*
X0141998Y0077374D02*
X0142616Y0077374D01*
X0142616Y0074905D01*
X0143233Y0074905D02*
X0141998Y0074905D01*
X0141381Y0075522D01*
X0141381Y0076756D01*
X0141998Y0077374D01*
X0143850Y0076756D02*
X0143850Y0075522D01*
X0143233Y0074905D01*
X0143850Y0073690D02*
X0143850Y0071839D01*
X0143233Y0071222D01*
X0141998Y0071222D01*
X0141381Y0071839D01*
X0141381Y0073690D01*
X0144467Y0073690D01*
X0145084Y0073073D01*
X0145084Y0072456D01*
X0147381Y0073370D02*
X0149850Y0073370D01*
X0148616Y0073370D02*
X0147381Y0074605D01*
X0147381Y0075222D01*
X0147998Y0072156D02*
X0147381Y0071539D01*
X0147381Y0070304D01*
X0147998Y0069687D01*
X0149233Y0069687D01*
X0149850Y0070304D01*
X0149850Y0071539D01*
X0149233Y0072156D01*
X0147998Y0072156D01*
X0147381Y0068466D02*
X0147381Y0067232D01*
X0146764Y0067849D02*
X0149233Y0067849D01*
X0149850Y0068466D01*
X0149850Y0066017D02*
X0147998Y0066017D01*
X0147381Y0065400D01*
X0147381Y0064166D01*
X0148616Y0064166D02*
X0148616Y0066017D01*
X0149850Y0066017D02*
X0149850Y0064166D01*
X0149233Y0063548D01*
X0148616Y0064166D01*
X0149850Y0062327D02*
X0149850Y0061093D01*
X0149850Y0061710D02*
X0146147Y0061710D01*
X0146147Y0061093D01*
X0147381Y0059879D02*
X0149850Y0059879D01*
X0149850Y0058027D01*
X0149233Y0057410D01*
X0147381Y0057410D01*
X0147381Y0056196D02*
X0147381Y0054344D01*
X0147998Y0053727D01*
X0149233Y0053727D01*
X0149850Y0054344D01*
X0149850Y0056196D01*
X0150467Y0056196D02*
X0147381Y0056196D01*
X0150467Y0056196D02*
X0151084Y0055578D01*
X0151084Y0054961D01*
X0149850Y0051895D02*
X0149850Y0050661D01*
X0149233Y0050044D01*
X0147998Y0050044D01*
X0147381Y0050661D01*
X0147381Y0051895D01*
X0147998Y0052512D01*
X0148616Y0052512D01*
X0148616Y0050044D01*
X0147998Y0048829D02*
X0148616Y0048212D01*
X0148616Y0046360D01*
X0149850Y0046360D02*
X0146147Y0046360D01*
X0146147Y0048212D01*
X0146764Y0048829D01*
X0147998Y0048829D01*
X0148616Y0047595D02*
X0149850Y0048829D01*
X0143850Y0049130D02*
X0142616Y0047895D01*
X0140147Y0047895D01*
X0140147Y0046681D02*
X0140147Y0044212D01*
X0141998Y0044212D01*
X0141381Y0045446D01*
X0141381Y0046064D01*
X0141998Y0046681D01*
X0143233Y0046681D01*
X0143850Y0046064D01*
X0143850Y0044829D01*
X0143233Y0044212D01*
X0143850Y0049130D02*
X0142616Y0050364D01*
X0140147Y0050364D01*
X0140147Y0055261D02*
X0142616Y0055261D01*
X0143850Y0056496D01*
X0142616Y0057730D01*
X0140147Y0057730D01*
X0141381Y0059562D02*
X0141998Y0058945D01*
X0143233Y0058945D01*
X0143850Y0059562D01*
X0143850Y0060796D01*
X0143233Y0061413D01*
X0141998Y0061413D01*
X0141381Y0060796D01*
X0141381Y0059562D01*
X0140147Y0062628D02*
X0140147Y0063245D01*
X0143850Y0063245D01*
X0143850Y0062628D02*
X0143850Y0063862D01*
X0143233Y0065700D02*
X0143850Y0066318D01*
X0143233Y0065700D02*
X0140764Y0065700D01*
X0141381Y0065083D02*
X0141381Y0066318D01*
X0141381Y0068156D02*
X0141381Y0069390D01*
X0141998Y0070007D01*
X0143850Y0070007D01*
X0143850Y0068156D01*
X0143233Y0067539D01*
X0142616Y0068156D01*
X0142616Y0070007D01*
X0101638Y0037353D02*
X0101638Y0033650D01*
X0101021Y0033650D02*
X0102256Y0033650D01*
X0103477Y0034267D02*
X0104094Y0033650D01*
X0105945Y0033650D01*
X0105945Y0033033D02*
X0105328Y0032416D01*
X0104711Y0032416D01*
X0105945Y0033033D02*
X0105945Y0036119D01*
X0103477Y0036119D02*
X0103477Y0034267D01*
X0101638Y0037353D02*
X0101021Y0037353D01*
X0099190Y0036119D02*
X0099807Y0035502D01*
X0099807Y0033650D01*
X0097338Y0033650D02*
X0097338Y0036119D01*
X0099190Y0036119D01*
X0096124Y0035502D02*
X0095506Y0036119D01*
X0094272Y0036119D01*
X0093655Y0035502D01*
X0093655Y0034267D01*
X0094272Y0033650D01*
X0095506Y0033650D01*
X0096124Y0034267D01*
X0096124Y0035502D01*
X0092737Y0031970D02*
X0092737Y0031353D01*
X0092737Y0030119D02*
X0092737Y0027650D01*
X0092120Y0027650D02*
X0093355Y0027650D01*
X0094576Y0027650D02*
X0094576Y0030119D01*
X0096427Y0030119D01*
X0097044Y0029502D01*
X0097044Y0027650D01*
X0098259Y0027650D02*
X0100110Y0027650D01*
X0100728Y0028267D01*
X0100728Y0029502D01*
X0100110Y0030119D01*
X0098259Y0030119D01*
X0098259Y0026416D01*
X0099490Y0023486D02*
X0099490Y0021017D01*
X0100107Y0020400D01*
X0101328Y0020400D02*
X0103180Y0020400D01*
X0103797Y0021017D01*
X0103180Y0021634D01*
X0101945Y0021634D01*
X0101328Y0022252D01*
X0101945Y0022869D01*
X0103797Y0022869D01*
X0100107Y0022869D02*
X0098873Y0022869D01*
X0097658Y0022869D02*
X0097658Y0020400D01*
X0095807Y0020400D01*
X0095189Y0021017D01*
X0095189Y0022869D01*
X0093975Y0022252D02*
X0093975Y0021017D01*
X0093358Y0020400D01*
X0091506Y0020400D01*
X0090292Y0020400D02*
X0090292Y0022252D01*
X0089675Y0022869D01*
X0087823Y0022869D01*
X0087823Y0020400D01*
X0086602Y0020400D02*
X0085368Y0020400D01*
X0085985Y0020400D02*
X0085985Y0022869D01*
X0085368Y0022869D01*
X0085985Y0024103D02*
X0085985Y0024720D01*
X0085988Y0027650D02*
X0087223Y0028884D01*
X0087223Y0031353D01*
X0084754Y0031353D02*
X0084754Y0028884D01*
X0085988Y0027650D01*
X0083540Y0028267D02*
X0082922Y0027650D01*
X0081688Y0027650D01*
X0081071Y0028267D01*
X0079846Y0028267D02*
X0079846Y0027650D01*
X0079229Y0027650D01*
X0079229Y0028267D01*
X0079846Y0028267D01*
X0078015Y0028267D02*
X0077398Y0027650D01*
X0076163Y0027650D01*
X0075546Y0028267D01*
X0076780Y0029502D02*
X0077398Y0029502D01*
X0078015Y0028884D01*
X0078015Y0028267D01*
X0077398Y0029502D02*
X0078015Y0030119D01*
X0078015Y0030736D01*
X0077398Y0031353D01*
X0076163Y0031353D01*
X0075546Y0030736D01*
X0073408Y0033650D02*
X0072173Y0033650D01*
X0071556Y0034267D01*
X0071556Y0035502D01*
X0072173Y0036119D01*
X0073408Y0036119D01*
X0074025Y0035502D01*
X0074025Y0034884D01*
X0071556Y0034884D01*
X0070342Y0033650D02*
X0070342Y0036119D01*
X0070342Y0033650D02*
X0068490Y0033650D01*
X0067873Y0034267D01*
X0067873Y0036119D01*
X0066658Y0036119D02*
X0064807Y0036119D01*
X0064190Y0035502D01*
X0064190Y0034267D01*
X0064807Y0033650D01*
X0066658Y0033650D01*
X0066658Y0037353D01*
X0059292Y0035502D02*
X0059292Y0034884D01*
X0056823Y0034884D01*
X0056823Y0034267D02*
X0056823Y0035502D01*
X0057441Y0036119D01*
X0058675Y0036119D01*
X0059292Y0035502D01*
X0058675Y0033650D02*
X0057441Y0033650D01*
X0056823Y0034267D01*
X0055609Y0033650D02*
X0055609Y0035502D01*
X0054992Y0036119D01*
X0053757Y0036119D01*
X0053140Y0035502D01*
X0053140Y0037353D02*
X0053140Y0033650D01*
X0050691Y0033650D02*
X0050691Y0037353D01*
X0049457Y0037353D02*
X0051926Y0037353D01*
X0050992Y0031353D02*
X0050992Y0027650D01*
X0050992Y0029502D02*
X0051609Y0030119D01*
X0052843Y0030119D01*
X0053461Y0029502D01*
X0053461Y0027650D01*
X0054675Y0028267D02*
X0055292Y0028884D01*
X0057144Y0028884D01*
X0057144Y0029502D02*
X0057144Y0027650D01*
X0055292Y0027650D01*
X0054675Y0028267D01*
X0055292Y0030119D02*
X0056526Y0030119D01*
X0057144Y0029502D01*
X0058358Y0030119D02*
X0060210Y0030119D01*
X0060827Y0029502D01*
X0060827Y0027650D01*
X0062041Y0028267D02*
X0062041Y0029502D01*
X0062658Y0030119D01*
X0064510Y0030119D01*
X0064510Y0031353D02*
X0064510Y0027650D01*
X0062658Y0027650D01*
X0062041Y0028267D01*
X0058358Y0027650D02*
X0058358Y0030119D01*
X0065724Y0031353D02*
X0066342Y0031353D01*
X0066342Y0027650D01*
X0066959Y0027650D02*
X0065724Y0027650D01*
X0068180Y0028267D02*
X0068180Y0029502D01*
X0068797Y0030119D01*
X0070031Y0030119D01*
X0070649Y0029502D01*
X0070649Y0028884D01*
X0068180Y0028884D01*
X0068180Y0028267D02*
X0068797Y0027650D01*
X0070031Y0027650D01*
X0069417Y0022869D02*
X0068183Y0022869D01*
X0067566Y0022252D01*
X0067566Y0021017D01*
X0068183Y0020400D01*
X0069417Y0020400D01*
X0070035Y0021017D01*
X0070035Y0022252D01*
X0069417Y0022869D01*
X0071866Y0022869D02*
X0073101Y0022869D01*
X0073718Y0022252D01*
X0073718Y0020400D01*
X0071866Y0020400D01*
X0071249Y0021017D01*
X0071866Y0021634D01*
X0073718Y0021634D01*
X0074932Y0021634D02*
X0076167Y0022869D01*
X0076784Y0022869D01*
X0078001Y0022252D02*
X0078619Y0022869D01*
X0080470Y0022869D01*
X0080470Y0024103D02*
X0080470Y0020400D01*
X0078619Y0020400D01*
X0078001Y0021017D01*
X0078001Y0022252D01*
X0074932Y0022869D02*
X0074932Y0020400D01*
X0072487Y0016869D02*
X0073104Y0016252D01*
X0073104Y0015634D01*
X0070635Y0015634D01*
X0070635Y0015017D02*
X0070635Y0016252D01*
X0071252Y0016869D01*
X0072487Y0016869D01*
X0072487Y0014400D02*
X0071252Y0014400D01*
X0070635Y0015017D01*
X0069421Y0015017D02*
X0068804Y0014400D01*
X0066952Y0014400D01*
X0066952Y0018103D01*
X0066952Y0016869D02*
X0068804Y0016869D01*
X0069421Y0016252D01*
X0069421Y0015017D01*
X0062055Y0018103D02*
X0059586Y0018103D01*
X0060820Y0018103D02*
X0060820Y0014400D01*
X0058371Y0015017D02*
X0057754Y0014400D01*
X0056520Y0014400D01*
X0055903Y0015017D01*
X0054688Y0015017D02*
X0054688Y0018103D01*
X0055903Y0017486D02*
X0055903Y0016869D01*
X0056520Y0016252D01*
X0057754Y0016252D01*
X0058371Y0015634D01*
X0058371Y0015017D01*
X0058371Y0017486D02*
X0057754Y0018103D01*
X0056520Y0018103D01*
X0055903Y0017486D01*
X0054688Y0015017D02*
X0054071Y0014400D01*
X0052837Y0014400D01*
X0052219Y0015017D01*
X0052219Y0018103D01*
X0051005Y0018103D02*
X0051005Y0014400D01*
X0048536Y0014400D02*
X0048536Y0018103D01*
X0049771Y0016869D01*
X0051005Y0018103D01*
X0051606Y0020400D02*
X0051606Y0022869D01*
X0052840Y0024103D01*
X0054074Y0022869D01*
X0054074Y0020400D01*
X0055289Y0020400D02*
X0056523Y0020400D01*
X0055906Y0020400D02*
X0055906Y0024103D01*
X0055289Y0024103D01*
X0054074Y0022252D02*
X0051606Y0022252D01*
X0057744Y0024103D02*
X0058361Y0024103D01*
X0058361Y0020400D01*
X0057744Y0020400D02*
X0058979Y0020400D01*
X0063883Y0020400D02*
X0063883Y0024103D01*
X0063883Y0022869D02*
X0065734Y0022869D01*
X0066352Y0022252D01*
X0066352Y0021017D01*
X0065734Y0020400D01*
X0063883Y0020400D01*
X0078001Y0016869D02*
X0078001Y0014400D01*
X0078001Y0015634D02*
X0079236Y0016869D01*
X0079853Y0016869D01*
X0081071Y0016252D02*
X0081688Y0016869D01*
X0082922Y0016869D01*
X0083540Y0016252D01*
X0083540Y0015634D01*
X0081071Y0015634D01*
X0081071Y0015017D02*
X0081071Y0016252D01*
X0081071Y0015017D02*
X0081688Y0014400D01*
X0082922Y0014400D01*
X0084754Y0015017D02*
X0085371Y0014400D01*
X0087223Y0014400D01*
X0087223Y0013783D02*
X0087223Y0016869D01*
X0085371Y0016869D01*
X0084754Y0016252D01*
X0084754Y0015017D01*
X0085988Y0013166D02*
X0086605Y0013166D01*
X0087223Y0013783D01*
X0088437Y0015017D02*
X0089054Y0014400D01*
X0090906Y0014400D01*
X0090906Y0016869D01*
X0092120Y0018103D02*
X0092737Y0018103D01*
X0092737Y0014400D01*
X0092120Y0014400D02*
X0093355Y0014400D01*
X0094576Y0015017D02*
X0095193Y0014400D01*
X0097044Y0014400D01*
X0097044Y0016252D01*
X0096427Y0016869D01*
X0095193Y0016869D01*
X0095193Y0015634D02*
X0097044Y0015634D01*
X0098259Y0016869D02*
X0099493Y0016869D01*
X0098876Y0017486D02*
X0098876Y0015017D01*
X0099493Y0014400D01*
X0100714Y0015017D02*
X0100714Y0016252D01*
X0101331Y0016869D01*
X0102566Y0016869D01*
X0103183Y0016252D01*
X0103183Y0015634D01*
X0100714Y0015634D01*
X0100714Y0015017D02*
X0101331Y0014400D01*
X0102566Y0014400D01*
X0104397Y0015017D02*
X0105015Y0014400D01*
X0106866Y0014400D01*
X0106866Y0018103D01*
X0106866Y0016869D02*
X0105015Y0016869D01*
X0104397Y0016252D01*
X0104397Y0015017D01*
X0095193Y0015634D02*
X0094576Y0015017D01*
X0091506Y0019166D02*
X0091506Y0022869D01*
X0093358Y0022869D01*
X0093975Y0022252D01*
X0101942Y0028267D02*
X0102559Y0027650D01*
X0104411Y0027650D01*
X0104411Y0030119D01*
X0105625Y0030119D02*
X0106859Y0030119D01*
X0106242Y0030736D02*
X0106242Y0028267D01*
X0106859Y0027650D01*
X0108080Y0027650D02*
X0108080Y0028267D01*
X0108080Y0029502D02*
X0108080Y0031970D01*
X0101942Y0030119D02*
X0101942Y0028267D01*
X0092737Y0030119D02*
X0092120Y0030119D01*
X0088757Y0033650D02*
X0088757Y0035502D01*
X0088140Y0036119D01*
X0086289Y0036119D01*
X0086289Y0033650D01*
X0085074Y0033650D02*
X0083223Y0033650D01*
X0082605Y0034267D01*
X0083223Y0034884D01*
X0085074Y0034884D01*
X0085074Y0035502D02*
X0085074Y0033650D01*
X0085074Y0035502D02*
X0084457Y0036119D01*
X0083223Y0036119D01*
X0081391Y0036119D02*
X0079539Y0036119D01*
X0078922Y0035502D01*
X0078922Y0034267D01*
X0079539Y0033650D01*
X0081391Y0033650D01*
X0081688Y0031353D02*
X0082922Y0031353D01*
X0083540Y0030736D01*
X0083540Y0030119D01*
X0082922Y0029502D01*
X0083540Y0028884D01*
X0083540Y0028267D01*
X0082922Y0029502D02*
X0082305Y0029502D01*
X0081071Y0030736D02*
X0081688Y0031353D01*
X0088437Y0016869D02*
X0088437Y0015017D01*
X0085685Y0010869D02*
X0086302Y0010252D01*
X0086302Y0008400D01*
X0083833Y0008400D02*
X0083833Y0010869D01*
X0085685Y0010869D01*
X0082619Y0010869D02*
X0082619Y0009017D01*
X0082002Y0008400D01*
X0081384Y0009017D01*
X0080767Y0008400D01*
X0080150Y0009017D01*
X0080150Y0010869D01*
X0078936Y0010252D02*
X0078318Y0010869D01*
X0077084Y0010869D01*
X0076467Y0010252D01*
X0076467Y0009017D01*
X0077084Y0008400D01*
X0078318Y0008400D01*
X0078936Y0009017D01*
X0078936Y0010252D01*
X0075252Y0010869D02*
X0073401Y0010869D01*
X0072784Y0010252D01*
X0072784Y0009017D01*
X0073401Y0008400D01*
X0075252Y0008400D01*
X0075252Y0012103D01*
X0380698Y0067650D02*
X0381665Y0068617D01*
X0380698Y0069585D01*
X0383600Y0069585D01*
X0383116Y0070597D02*
X0383600Y0071080D01*
X0383600Y0072048D01*
X0383116Y0072531D01*
X0382633Y0072531D01*
X0382149Y0072048D01*
X0382149Y0071080D01*
X0381665Y0070597D01*
X0381181Y0070597D01*
X0380698Y0071080D01*
X0380698Y0072048D01*
X0381181Y0072531D01*
X0381181Y0073543D02*
X0380698Y0074027D01*
X0380698Y0074994D01*
X0381181Y0075478D01*
X0381665Y0075478D01*
X0382149Y0074994D01*
X0382633Y0075478D01*
X0383116Y0075478D01*
X0383600Y0074994D01*
X0383600Y0074027D01*
X0383116Y0073543D01*
X0382149Y0074511D02*
X0382149Y0074994D01*
X0383600Y0067650D02*
X0380698Y0067650D01*
D12*
X0369873Y0065450D02*
X0366804Y0065450D01*
X0368339Y0065450D02*
X0368339Y0070054D01*
X0366804Y0068519D01*
X0365269Y0067752D02*
X0365269Y0069287D01*
X0364502Y0070054D01*
X0362200Y0070054D01*
X0362200Y0065450D01*
X0362200Y0066985D02*
X0364502Y0066985D01*
X0365269Y0067752D01*
X0363735Y0066985D02*
X0365269Y0065450D01*
X0364502Y0058804D02*
X0362200Y0058804D01*
X0362200Y0054200D01*
X0362200Y0055735D02*
X0364502Y0055735D01*
X0365269Y0056502D01*
X0365269Y0058037D01*
X0364502Y0058804D01*
X0366804Y0058037D02*
X0367571Y0058804D01*
X0369106Y0058804D01*
X0369873Y0058037D01*
X0369873Y0057269D01*
X0369106Y0056502D01*
X0369873Y0055735D01*
X0369873Y0054967D01*
X0369106Y0054200D01*
X0367571Y0054200D01*
X0366804Y0054967D01*
X0365269Y0054200D02*
X0363735Y0055735D01*
X0368339Y0056502D02*
X0369106Y0056502D01*
X0369873Y0047554D02*
X0366804Y0047554D01*
X0366804Y0045252D01*
X0368339Y0046019D01*
X0369106Y0046019D01*
X0369873Y0045252D01*
X0369873Y0043717D01*
X0369106Y0042950D01*
X0367571Y0042950D01*
X0366804Y0043717D01*
X0365269Y0042950D02*
X0363735Y0044485D01*
X0364502Y0044485D02*
X0362200Y0044485D01*
X0362200Y0042950D02*
X0362200Y0047554D01*
X0364502Y0047554D01*
X0365269Y0046787D01*
X0365269Y0045252D01*
X0364502Y0044485D01*
X0326123Y0044485D02*
X0326123Y0043717D01*
X0325356Y0042950D01*
X0323821Y0042950D01*
X0323054Y0043717D01*
X0323054Y0045252D01*
X0325356Y0045252D01*
X0326123Y0044485D01*
X0324589Y0046787D02*
X0323054Y0045252D01*
X0321519Y0045252D02*
X0320752Y0044485D01*
X0318450Y0044485D01*
X0319985Y0044485D02*
X0321519Y0042950D01*
X0321519Y0045252D02*
X0321519Y0046787D01*
X0320752Y0047554D01*
X0318450Y0047554D01*
X0318450Y0042950D01*
X0324589Y0046787D02*
X0326123Y0047554D01*
X0325356Y0054200D02*
X0325356Y0058804D01*
X0323054Y0056502D01*
X0326123Y0056502D01*
X0321519Y0056502D02*
X0320752Y0055735D01*
X0318450Y0055735D01*
X0319985Y0055735D02*
X0321519Y0054200D01*
X0321519Y0056502D02*
X0321519Y0058037D01*
X0320752Y0058804D01*
X0318450Y0058804D01*
X0318450Y0054200D01*
X0318450Y0065450D02*
X0318450Y0070054D01*
X0320752Y0070054D01*
X0321519Y0069287D01*
X0321519Y0067752D01*
X0320752Y0066985D01*
X0318450Y0066985D01*
X0319985Y0066985D02*
X0321519Y0065450D01*
X0323054Y0065450D02*
X0326123Y0068519D01*
X0326123Y0069287D01*
X0325356Y0070054D01*
X0323821Y0070054D01*
X0323054Y0069287D01*
X0323054Y0065450D02*
X0326123Y0065450D01*
X0331203Y0083950D02*
X0333505Y0083950D01*
X0334272Y0084717D01*
X0334272Y0087787D01*
X0333505Y0088554D01*
X0331203Y0088554D01*
X0331203Y0083950D01*
X0335806Y0083950D02*
X0337341Y0083950D01*
X0336574Y0083950D02*
X0336574Y0087019D01*
X0335806Y0087019D01*
X0336574Y0088554D02*
X0336574Y0089321D01*
X0336190Y0091450D02*
X0335423Y0092217D01*
X0335423Y0093752D01*
X0336190Y0094519D01*
X0337725Y0094519D01*
X0338492Y0093752D01*
X0338492Y0092217D01*
X0337725Y0091450D01*
X0336190Y0091450D01*
X0333888Y0092985D02*
X0333888Y0096054D01*
X0334655Y0098950D02*
X0333888Y0099717D01*
X0333888Y0101252D01*
X0334655Y0102019D01*
X0336190Y0102019D01*
X0336957Y0101252D01*
X0336957Y0100485D01*
X0333888Y0100485D01*
X0332354Y0101252D02*
X0332354Y0098950D01*
X0334655Y0098950D02*
X0336190Y0098950D01*
X0338492Y0098950D02*
X0338492Y0102019D01*
X0338492Y0100485D02*
X0340027Y0102019D01*
X0340794Y0102019D01*
X0342329Y0102019D02*
X0342329Y0098950D01*
X0343863Y0098950D02*
X0343863Y0101252D01*
X0344631Y0102019D01*
X0345398Y0101252D01*
X0345398Y0098950D01*
X0346933Y0098950D02*
X0348467Y0098950D01*
X0347700Y0098950D02*
X0347700Y0102019D01*
X0346933Y0102019D01*
X0347700Y0103554D02*
X0347700Y0104321D01*
X0350002Y0101252D02*
X0350769Y0102019D01*
X0353071Y0102019D01*
X0354606Y0102019D02*
X0356140Y0102019D01*
X0355373Y0102787D02*
X0355373Y0099717D01*
X0356140Y0098950D01*
X0357675Y0099717D02*
X0358442Y0098950D01*
X0359977Y0098950D01*
X0360744Y0099717D01*
X0360744Y0101252D01*
X0359977Y0102019D01*
X0358442Y0102019D01*
X0357675Y0101252D01*
X0357675Y0099717D01*
X0353071Y0099717D02*
X0352304Y0100485D01*
X0350769Y0100485D01*
X0350002Y0101252D01*
X0350002Y0098950D02*
X0352304Y0098950D01*
X0353071Y0099717D01*
X0353839Y0094519D02*
X0351537Y0094519D01*
X0350769Y0093752D01*
X0350769Y0092217D01*
X0351537Y0091450D01*
X0353839Y0091450D01*
X0353839Y0090683D02*
X0353839Y0094519D01*
X0355373Y0093752D02*
X0355373Y0092217D01*
X0356140Y0091450D01*
X0357675Y0091450D01*
X0358442Y0092985D02*
X0355373Y0092985D01*
X0355373Y0093752D02*
X0356140Y0094519D01*
X0357675Y0094519D01*
X0358442Y0093752D01*
X0358442Y0092985D01*
X0353839Y0090683D02*
X0353071Y0089915D01*
X0352304Y0089915D01*
X0351920Y0087019D02*
X0353455Y0087019D01*
X0354222Y0086252D01*
X0354222Y0085485D01*
X0351153Y0085485D01*
X0351153Y0086252D02*
X0351920Y0087019D01*
X0351153Y0086252D02*
X0351153Y0084717D01*
X0351920Y0083950D01*
X0353455Y0083950D01*
X0355757Y0083950D02*
X0355757Y0087019D01*
X0355757Y0085485D02*
X0357291Y0087019D01*
X0358059Y0087019D01*
X0359593Y0086252D02*
X0360361Y0087019D01*
X0362663Y0087019D01*
X0361895Y0085485D02*
X0360361Y0085485D01*
X0359593Y0086252D01*
X0359593Y0083950D02*
X0361895Y0083950D01*
X0362663Y0084717D01*
X0361895Y0085485D01*
X0349618Y0087019D02*
X0347316Y0087019D01*
X0346549Y0086252D01*
X0346549Y0084717D01*
X0347316Y0083950D01*
X0349618Y0083950D01*
X0349618Y0088554D01*
X0349235Y0091450D02*
X0346933Y0091450D01*
X0346165Y0092217D01*
X0346933Y0092985D01*
X0349235Y0092985D01*
X0349235Y0093752D02*
X0349235Y0091450D01*
X0349235Y0093752D02*
X0348467Y0094519D01*
X0346933Y0094519D01*
X0344631Y0094519D02*
X0343096Y0094519D01*
X0343863Y0095287D02*
X0343863Y0092217D01*
X0344631Y0091450D01*
X0344247Y0089321D02*
X0344247Y0088554D01*
X0344247Y0087019D02*
X0344247Y0083950D01*
X0343480Y0083950D02*
X0345014Y0083950D01*
X0344247Y0087019D02*
X0343480Y0087019D01*
X0341945Y0087019D02*
X0340410Y0083950D01*
X0338876Y0087019D01*
X0340027Y0091450D02*
X0341561Y0091450D01*
X0340794Y0091450D02*
X0340794Y0096054D01*
X0340027Y0096054D01*
X0333888Y0092985D02*
X0332354Y0091450D01*
X0330819Y0092985D01*
X0330819Y0096054D01*
X0329284Y0098950D02*
X0329284Y0103554D01*
X0327750Y0103554D02*
X0324680Y0103554D01*
X0326215Y0103554D02*
X0326215Y0098950D01*
X0329284Y0101252D02*
X0330052Y0102019D01*
X0331586Y0102019D01*
X0332354Y0101252D01*
X0342329Y0102019D02*
X0343096Y0102019D01*
X0343863Y0101252D01*
X0362279Y0102019D02*
X0362279Y0098950D01*
X0362279Y0100485D02*
X0363814Y0102019D01*
X0364581Y0102019D01*
X0307300Y0167700D02*
X0302696Y0167700D01*
X0302696Y0170769D01*
X0302696Y0172304D02*
X0307300Y0172304D01*
X0307300Y0175373D01*
X0307300Y0176908D02*
X0302696Y0176908D01*
X0302696Y0179210D01*
X0303463Y0179977D01*
X0304998Y0179977D01*
X0305765Y0179210D01*
X0305765Y0176908D01*
X0304998Y0173839D02*
X0304998Y0172304D01*
X0302696Y0172304D02*
X0302696Y0175373D01*
X0307300Y0170769D02*
X0307300Y0167700D01*
X0304998Y0167700D02*
X0304998Y0169235D01*
X0315200Y0173950D02*
X0318269Y0177019D01*
X0318269Y0177787D01*
X0317502Y0178554D01*
X0315967Y0178554D01*
X0315200Y0177787D01*
X0315200Y0173950D02*
X0318269Y0173950D01*
X0319804Y0176252D02*
X0322873Y0176252D01*
X0324408Y0177787D02*
X0324408Y0174717D01*
X0325175Y0173950D01*
X0326710Y0173950D01*
X0327477Y0174717D01*
X0329012Y0173950D02*
X0332081Y0173950D01*
X0333616Y0173950D02*
X0336685Y0177019D01*
X0336685Y0177787D01*
X0335918Y0178554D01*
X0334383Y0178554D01*
X0333616Y0177787D01*
X0333616Y0173950D02*
X0336685Y0173950D01*
X0338220Y0174717D02*
X0338987Y0173950D01*
X0340522Y0173950D01*
X0341289Y0174717D01*
X0341289Y0176252D01*
X0340522Y0177019D01*
X0339754Y0177019D01*
X0338220Y0176252D01*
X0338220Y0178554D01*
X0341289Y0178554D01*
X0342824Y0176252D02*
X0345126Y0176252D01*
X0345893Y0175485D01*
X0345893Y0174717D01*
X0345126Y0173950D01*
X0343591Y0173950D01*
X0342824Y0174717D01*
X0342824Y0176252D01*
X0344358Y0177787D01*
X0345893Y0178554D01*
X0329012Y0178554D02*
X0329012Y0173950D01*
X0327477Y0177787D02*
X0326710Y0178554D01*
X0325175Y0178554D01*
X0324408Y0177787D01*
X0322106Y0178554D02*
X0322106Y0173950D01*
X0319804Y0176252D02*
X0322106Y0178554D01*
X0307300Y0181512D02*
X0302696Y0181512D01*
X0302696Y0183814D01*
X0303463Y0184581D01*
X0304998Y0184581D01*
X0305765Y0183814D01*
X0305765Y0181512D01*
X0305765Y0183046D02*
X0307300Y0184581D01*
X0306533Y0186116D02*
X0303463Y0186116D01*
X0302696Y0186883D01*
X0302696Y0188418D01*
X0303463Y0189185D01*
X0306533Y0189185D01*
X0307300Y0188418D01*
X0307300Y0186883D01*
X0306533Y0186116D01*
X0307300Y0190720D02*
X0302696Y0190720D01*
X0304231Y0192254D01*
X0302696Y0193789D01*
X0307300Y0193789D01*
X0246050Y0147415D02*
X0246050Y0144346D01*
X0246050Y0145881D02*
X0241446Y0145881D01*
X0242981Y0144346D01*
X0242213Y0142811D02*
X0241446Y0142044D01*
X0241446Y0140509D01*
X0242213Y0139742D01*
X0245283Y0139742D01*
X0246050Y0140509D01*
X0246050Y0142044D01*
X0245283Y0142811D01*
X0242213Y0142811D01*
X0237300Y0143096D02*
X0237300Y0146165D01*
X0237300Y0143096D02*
X0234231Y0146165D01*
X0233463Y0146165D01*
X0232696Y0145398D01*
X0232696Y0143863D01*
X0233463Y0143096D01*
X0233463Y0141561D02*
X0232696Y0140794D01*
X0232696Y0139259D01*
X0233463Y0138492D01*
X0236533Y0138492D01*
X0237300Y0139259D01*
X0237300Y0140794D01*
X0236533Y0141561D01*
X0233463Y0141561D01*
X0232696Y0136957D02*
X0235765Y0136957D01*
X0237300Y0135423D01*
X0235765Y0133888D01*
X0232696Y0133888D01*
X0233463Y0132354D02*
X0234998Y0132354D01*
X0235765Y0131586D01*
X0235765Y0129284D01*
X0235765Y0130819D02*
X0237300Y0132354D01*
X0233463Y0132354D02*
X0232696Y0131586D01*
X0232696Y0129284D01*
X0237300Y0129284D01*
X0237300Y0127750D02*
X0237300Y0124680D01*
X0232696Y0124680D01*
X0232696Y0127750D01*
X0234998Y0126215D02*
X0234998Y0124680D01*
X0235765Y0123146D02*
X0236533Y0123146D01*
X0237300Y0122378D01*
X0237300Y0120844D01*
X0236533Y0120076D01*
X0234998Y0120844D02*
X0234998Y0122378D01*
X0235765Y0123146D01*
X0233463Y0123146D02*
X0232696Y0122378D01*
X0232696Y0120844D01*
X0233463Y0120076D01*
X0234231Y0120076D01*
X0234998Y0120844D01*
X0241446Y0122094D02*
X0242213Y0121326D01*
X0242981Y0121326D01*
X0243748Y0122094D01*
X0243748Y0123628D01*
X0244515Y0124396D01*
X0245283Y0124396D01*
X0246050Y0123628D01*
X0246050Y0122094D01*
X0245283Y0121326D01*
X0241446Y0122094D02*
X0241446Y0123628D01*
X0242213Y0124396D01*
X0241446Y0125930D02*
X0246050Y0125930D01*
X0246050Y0129000D01*
X0246050Y0130534D02*
X0241446Y0130534D01*
X0241446Y0132836D01*
X0242213Y0133604D01*
X0243748Y0133604D01*
X0244515Y0132836D01*
X0244515Y0130534D01*
X0244515Y0132069D02*
X0246050Y0133604D01*
X0244515Y0135138D02*
X0246050Y0136673D01*
X0244515Y0138207D01*
X0241446Y0138207D01*
X0241446Y0135138D02*
X0244515Y0135138D01*
X0241446Y0129000D02*
X0241446Y0125930D01*
X0243748Y0125930D02*
X0243748Y0127465D01*
X0207300Y0127750D02*
X0207300Y0124680D01*
X0202696Y0124680D01*
X0202696Y0127750D01*
X0202696Y0129284D02*
X0202696Y0131586D01*
X0203463Y0132354D01*
X0204998Y0132354D01*
X0205765Y0131586D01*
X0205765Y0129284D01*
X0205765Y0130819D02*
X0207300Y0132354D01*
X0205765Y0133888D02*
X0207300Y0135423D01*
X0205765Y0136957D01*
X0202696Y0136957D01*
X0203463Y0138492D02*
X0206533Y0138492D01*
X0207300Y0139259D01*
X0207300Y0140794D01*
X0206533Y0141561D01*
X0203463Y0141561D01*
X0202696Y0140794D01*
X0202696Y0139259D01*
X0203463Y0138492D01*
X0197300Y0139259D02*
X0197300Y0140794D01*
X0196533Y0141561D01*
X0193463Y0141561D01*
X0192696Y0140794D01*
X0192696Y0139259D01*
X0193463Y0138492D01*
X0196533Y0138492D01*
X0197300Y0139259D01*
X0195765Y0136957D02*
X0192696Y0136957D01*
X0195765Y0136957D02*
X0197300Y0135423D01*
X0195765Y0133888D01*
X0192696Y0133888D01*
X0193463Y0132354D02*
X0194998Y0132354D01*
X0195765Y0131586D01*
X0195765Y0129284D01*
X0195765Y0130819D02*
X0197300Y0132354D01*
X0193463Y0132354D02*
X0192696Y0131586D01*
X0192696Y0129284D01*
X0197300Y0129284D01*
X0197300Y0127750D02*
X0197300Y0124680D01*
X0192696Y0124680D01*
X0192696Y0127750D01*
X0194998Y0126215D02*
X0194998Y0124680D01*
X0195765Y0123146D02*
X0196533Y0123146D01*
X0197300Y0122378D01*
X0197300Y0120844D01*
X0196533Y0120076D01*
X0194998Y0120844D02*
X0194998Y0122378D01*
X0195765Y0123146D01*
X0193463Y0123146D02*
X0192696Y0122378D01*
X0192696Y0120844D01*
X0193463Y0120076D01*
X0194231Y0120076D01*
X0194998Y0120844D01*
X0202696Y0120844D02*
X0203463Y0120076D01*
X0204231Y0120076D01*
X0204998Y0120844D01*
X0204998Y0122378D01*
X0205765Y0123146D01*
X0206533Y0123146D01*
X0207300Y0122378D01*
X0207300Y0120844D01*
X0206533Y0120076D01*
X0202696Y0120844D02*
X0202696Y0122378D01*
X0203463Y0123146D01*
X0204998Y0124680D02*
X0204998Y0126215D01*
X0207300Y0129284D02*
X0202696Y0129284D01*
X0202696Y0133888D02*
X0205765Y0133888D01*
X0206533Y0143096D02*
X0207300Y0143863D01*
X0207300Y0145398D01*
X0206533Y0146165D01*
X0205765Y0146165D01*
X0204998Y0145398D01*
X0204998Y0144631D01*
X0204998Y0145398D02*
X0204231Y0146165D01*
X0203463Y0146165D01*
X0202696Y0145398D01*
X0202696Y0143863D01*
X0203463Y0143096D01*
X0197300Y0145398D02*
X0192696Y0145398D01*
X0194998Y0143096D01*
X0194998Y0146165D01*
X0182300Y0142415D02*
X0177696Y0139346D01*
X0179231Y0137811D02*
X0182300Y0137811D01*
X0182300Y0139346D02*
X0177696Y0142415D01*
X0172300Y0142415D02*
X0167696Y0142415D01*
X0167696Y0139346D02*
X0172300Y0142415D01*
X0172300Y0139346D02*
X0167696Y0139346D01*
X0167696Y0137811D02*
X0167696Y0136277D01*
X0167696Y0137044D02*
X0172300Y0137044D01*
X0172300Y0136277D02*
X0172300Y0137811D01*
X0172300Y0134742D02*
X0167696Y0134742D01*
X0169231Y0133207D01*
X0167696Y0131673D01*
X0172300Y0131673D01*
X0169998Y0130138D02*
X0169998Y0127069D01*
X0168463Y0125534D02*
X0171533Y0122465D01*
X0172300Y0122465D01*
X0172300Y0125534D01*
X0168463Y0125534D02*
X0167696Y0125534D01*
X0167696Y0122465D01*
X0177696Y0120930D02*
X0178463Y0120930D01*
X0179998Y0122465D01*
X0182300Y0122465D01*
X0179998Y0122465D02*
X0178463Y0124000D01*
X0177696Y0124000D01*
X0179998Y0125534D02*
X0179998Y0128604D01*
X0177696Y0130138D02*
X0179231Y0131673D01*
X0177696Y0133207D01*
X0182300Y0133207D01*
X0182300Y0134742D02*
X0179231Y0134742D01*
X0177696Y0136277D01*
X0179231Y0137811D01*
X0179998Y0137811D02*
X0179998Y0134742D01*
X0182300Y0130138D02*
X0177696Y0130138D01*
X0142300Y0131673D02*
X0137696Y0131673D01*
X0139231Y0133207D01*
X0137696Y0134742D01*
X0142300Y0134742D01*
X0142300Y0136277D02*
X0142300Y0137811D01*
X0142300Y0137044D02*
X0137696Y0137044D01*
X0137696Y0136277D02*
X0137696Y0137811D01*
X0137696Y0139346D02*
X0142300Y0142415D01*
X0137696Y0142415D01*
X0137696Y0139346D02*
X0142300Y0139346D01*
X0132300Y0139346D02*
X0127696Y0139346D01*
X0132300Y0142415D01*
X0127696Y0142415D01*
X0127696Y0137811D02*
X0127696Y0136277D01*
X0127696Y0137044D02*
X0132300Y0137044D01*
X0132300Y0136277D02*
X0132300Y0137811D01*
X0132300Y0134742D02*
X0127696Y0134742D01*
X0129231Y0133207D01*
X0127696Y0131673D01*
X0132300Y0131673D01*
X0129998Y0130138D02*
X0129998Y0127069D01*
X0127696Y0125534D02*
X0132300Y0122465D01*
X0132300Y0125534D02*
X0127696Y0122465D01*
X0137696Y0122465D02*
X0138463Y0122465D01*
X0139998Y0124000D01*
X0142300Y0124000D01*
X0139998Y0124000D02*
X0138463Y0125534D01*
X0137696Y0125534D01*
X0139998Y0127069D02*
X0139998Y0130138D01*
X0117300Y0131388D02*
X0112696Y0131388D01*
X0114231Y0132923D01*
X0112696Y0134457D01*
X0117300Y0134457D01*
X0117300Y0135992D02*
X0114231Y0135992D01*
X0112696Y0137527D01*
X0114231Y0139061D01*
X0117300Y0139061D01*
X0117300Y0140596D02*
X0112696Y0143665D01*
X0112696Y0140596D02*
X0117300Y0143665D01*
X0114998Y0139061D02*
X0114998Y0135992D01*
X0114998Y0129854D02*
X0114998Y0126784D01*
X0112696Y0125250D02*
X0117300Y0122180D01*
X0117300Y0125250D02*
X0112696Y0122180D01*
X0108550Y0122292D02*
X0103946Y0122292D01*
X0103946Y0123826D02*
X0108550Y0123826D01*
X0108550Y0126896D01*
X0108550Y0128430D02*
X0105481Y0128430D01*
X0103946Y0129965D01*
X0105481Y0131500D01*
X0108550Y0131500D01*
X0106248Y0131500D02*
X0106248Y0128430D01*
X0103946Y0126896D02*
X0103946Y0123826D01*
X0106248Y0123826D02*
X0106248Y0125361D01*
X0106248Y0122292D02*
X0106248Y0119222D01*
X0108550Y0119222D02*
X0103946Y0119222D01*
X0103946Y0133034D02*
X0103946Y0136104D01*
X0103946Y0137638D02*
X0108550Y0137638D01*
X0108550Y0140707D01*
X0108550Y0142242D02*
X0103946Y0142242D01*
X0103946Y0144544D01*
X0104713Y0145311D01*
X0106248Y0145311D01*
X0107015Y0144544D01*
X0107015Y0142242D01*
X0107015Y0143777D02*
X0108550Y0145311D01*
X0107783Y0146846D02*
X0108550Y0147613D01*
X0108550Y0149148D01*
X0107783Y0149915D01*
X0107015Y0149915D01*
X0106248Y0149148D01*
X0106248Y0148381D01*
X0106248Y0149148D02*
X0105481Y0149915D01*
X0104713Y0149915D01*
X0103946Y0149148D01*
X0103946Y0147613D01*
X0104713Y0146846D01*
X0103946Y0140707D02*
X0103946Y0137638D01*
X0106248Y0137638D02*
X0106248Y0139173D01*
X0108550Y0134569D02*
X0103946Y0134569D01*
X0077300Y0134569D02*
X0072696Y0134569D01*
X0072696Y0133034D02*
X0072696Y0136104D01*
X0072696Y0137638D02*
X0077300Y0137638D01*
X0077300Y0140707D01*
X0077300Y0142242D02*
X0072696Y0142242D01*
X0072696Y0144544D01*
X0073463Y0145311D01*
X0074998Y0145311D01*
X0075765Y0144544D01*
X0075765Y0142242D01*
X0075765Y0143777D02*
X0077300Y0145311D01*
X0077300Y0146846D02*
X0074231Y0149915D01*
X0073463Y0149915D01*
X0072696Y0149148D01*
X0072696Y0147613D01*
X0073463Y0146846D01*
X0077300Y0146846D02*
X0077300Y0149915D01*
X0067300Y0149915D02*
X0067300Y0146846D01*
X0067300Y0145311D02*
X0065765Y0143777D01*
X0065765Y0144544D02*
X0065765Y0142242D01*
X0067300Y0142242D02*
X0062696Y0142242D01*
X0062696Y0144544D01*
X0063463Y0145311D01*
X0064998Y0145311D01*
X0065765Y0144544D01*
X0064231Y0146846D02*
X0062696Y0148381D01*
X0067300Y0148381D01*
X0067300Y0140707D02*
X0067300Y0137638D01*
X0062696Y0137638D01*
X0062696Y0140707D01*
X0064998Y0139173D02*
X0064998Y0137638D01*
X0062696Y0136104D02*
X0062696Y0133034D01*
X0062696Y0134569D02*
X0067300Y0134569D01*
X0072696Y0137638D02*
X0072696Y0140707D01*
X0074998Y0139173D02*
X0074998Y0137638D01*
X0074998Y0131500D02*
X0074998Y0128430D01*
X0074231Y0128430D02*
X0077300Y0128430D01*
X0077300Y0126896D02*
X0077300Y0123826D01*
X0072696Y0123826D01*
X0072696Y0126896D01*
X0074231Y0128430D02*
X0072696Y0129965D01*
X0074231Y0131500D01*
X0077300Y0131500D01*
X0074998Y0125361D02*
X0074998Y0123826D01*
X0074998Y0122292D02*
X0074998Y0119222D01*
X0077300Y0119222D02*
X0072696Y0119222D01*
X0067300Y0119222D02*
X0062696Y0119222D01*
X0064998Y0119222D02*
X0064998Y0122292D01*
X0064998Y0123826D02*
X0064998Y0125361D01*
X0062696Y0126896D02*
X0062696Y0123826D01*
X0067300Y0123826D01*
X0067300Y0126896D01*
X0067300Y0128430D02*
X0064231Y0128430D01*
X0062696Y0129965D01*
X0064231Y0131500D01*
X0067300Y0131500D01*
X0064998Y0131500D02*
X0064998Y0128430D01*
X0062696Y0122292D02*
X0067300Y0122292D01*
X0072696Y0122292D02*
X0077300Y0122292D01*
X0101370Y0168165D02*
X0101370Y0173370D01*
X0103972Y0173370D01*
X0104840Y0172502D01*
X0104840Y0170767D01*
X0103972Y0169900D01*
X0101370Y0169900D01*
X0099667Y0169900D02*
X0098800Y0170767D01*
X0098800Y0174237D01*
X0097933Y0173370D02*
X0099667Y0173370D01*
X0096230Y0173370D02*
X0094495Y0173370D01*
X0095362Y0174237D02*
X0095362Y0170767D01*
X0096230Y0169900D01*
X0092808Y0169900D02*
X0092808Y0172502D01*
X0091941Y0173370D01*
X0090206Y0173370D01*
X0089339Y0172502D01*
X0089339Y0175104D02*
X0089339Y0169900D01*
X0106527Y0169900D02*
X0106527Y0170767D01*
X0107394Y0170767D01*
X0107394Y0169900D01*
X0106527Y0169900D01*
X0109105Y0169900D02*
X0112574Y0175104D01*
X0117731Y0175104D02*
X0114261Y0169900D01*
X0119417Y0169900D02*
X0119417Y0173370D01*
X0119417Y0171635D02*
X0121152Y0173370D01*
X0122020Y0173370D01*
X0123714Y0172502D02*
X0124582Y0173370D01*
X0126317Y0173370D01*
X0127184Y0172502D01*
X0127184Y0171635D01*
X0123714Y0171635D01*
X0123714Y0172502D02*
X0123714Y0170767D01*
X0124582Y0169900D01*
X0126317Y0169900D01*
X0128871Y0169900D02*
X0131473Y0169900D01*
X0132341Y0170767D01*
X0132341Y0172502D01*
X0131473Y0173370D01*
X0128871Y0173370D01*
X0128871Y0168165D01*
X0134027Y0169900D02*
X0134027Y0173370D01*
X0134027Y0171635D02*
X0135762Y0173370D01*
X0136630Y0173370D01*
X0139192Y0173370D02*
X0140927Y0173370D01*
X0141794Y0172502D01*
X0141794Y0169900D01*
X0139192Y0169900D01*
X0138324Y0170767D01*
X0139192Y0171635D01*
X0141794Y0171635D01*
X0143481Y0173370D02*
X0146083Y0173370D01*
X0146950Y0172502D01*
X0146950Y0170767D01*
X0146083Y0169900D01*
X0143481Y0169900D01*
X0143481Y0168165D02*
X0143481Y0173370D01*
X0148637Y0170767D02*
X0149504Y0170767D01*
X0149504Y0169900D01*
X0148637Y0169900D01*
X0148637Y0170767D01*
X0151215Y0170767D02*
X0151215Y0172502D01*
X0152083Y0173370D01*
X0153817Y0173370D01*
X0154685Y0172502D01*
X0154685Y0170767D01*
X0153817Y0169900D01*
X0152083Y0169900D01*
X0151215Y0170767D01*
X0156372Y0169900D02*
X0156372Y0173370D01*
X0158106Y0173370D02*
X0156372Y0171635D01*
X0158106Y0173370D02*
X0158974Y0173370D01*
X0160669Y0172502D02*
X0161536Y0173370D01*
X0164138Y0173370D01*
X0164138Y0169033D01*
X0163271Y0168165D01*
X0162403Y0168165D01*
X0161536Y0169900D02*
X0164138Y0169900D01*
X0165825Y0169900D02*
X0169295Y0175104D01*
X0170981Y0173370D02*
X0170981Y0170767D01*
X0171849Y0169900D01*
X0172716Y0170767D01*
X0173584Y0169900D01*
X0174451Y0170767D01*
X0174451Y0173370D01*
X0176138Y0173370D02*
X0177005Y0173370D01*
X0177005Y0169900D01*
X0176138Y0169900D02*
X0177873Y0169900D01*
X0179575Y0169900D02*
X0179575Y0175104D01*
X0177005Y0175104D02*
X0177005Y0175972D01*
X0179575Y0171635D02*
X0182178Y0173370D01*
X0183872Y0173370D02*
X0184740Y0173370D01*
X0184740Y0169900D01*
X0185607Y0169900D02*
X0183872Y0169900D01*
X0182178Y0169900D02*
X0179575Y0171635D01*
X0184740Y0175104D02*
X0184740Y0175972D01*
X0190780Y0175104D02*
X0187310Y0169900D01*
X0192466Y0169900D02*
X0192466Y0175104D01*
X0195069Y0175104D01*
X0195936Y0174237D01*
X0195936Y0172502D01*
X0195069Y0171635D01*
X0192466Y0171635D01*
X0194201Y0171635D02*
X0195936Y0169900D01*
X0197623Y0169900D02*
X0197623Y0173370D01*
X0199358Y0175104D01*
X0201092Y0173370D01*
X0201092Y0169900D01*
X0202779Y0169900D02*
X0202779Y0175104D01*
X0204514Y0173370D01*
X0206249Y0175104D01*
X0206249Y0169900D01*
X0207936Y0169900D02*
X0207936Y0175104D01*
X0210538Y0175104D01*
X0211405Y0174237D01*
X0211405Y0172502D01*
X0210538Y0171635D01*
X0207936Y0171635D01*
X0213092Y0170767D02*
X0213959Y0169900D01*
X0215694Y0169900D01*
X0216562Y0170767D01*
X0216562Y0171635D01*
X0215694Y0172502D01*
X0213959Y0172502D01*
X0213092Y0173370D01*
X0213092Y0174237D01*
X0213959Y0175104D01*
X0215694Y0175104D01*
X0216562Y0174237D01*
X0218248Y0175104D02*
X0220851Y0175104D01*
X0221718Y0174237D01*
X0221718Y0170767D01*
X0220851Y0169900D01*
X0218248Y0169900D01*
X0218248Y0175104D01*
X0223405Y0174237D02*
X0223405Y0170767D01*
X0224272Y0169900D01*
X0226007Y0169900D01*
X0226874Y0170767D01*
X0226874Y0174237D02*
X0226007Y0175104D01*
X0224272Y0175104D01*
X0223405Y0174237D01*
X0201092Y0172502D02*
X0197623Y0172502D01*
X0161536Y0169900D02*
X0160669Y0170767D01*
X0160669Y0172502D01*
X0107394Y0172502D02*
X0106527Y0172502D01*
X0106527Y0173370D01*
X0107394Y0173370D01*
X0107394Y0172502D01*
X0097007Y0214915D02*
X0096239Y0214915D01*
X0097007Y0214915D02*
X0097774Y0215683D01*
X0097774Y0219519D01*
X0097774Y0216450D02*
X0095472Y0216450D01*
X0094705Y0217217D01*
X0094705Y0219519D01*
X0093170Y0218752D02*
X0092403Y0219519D01*
X0090101Y0219519D01*
X0090101Y0221054D02*
X0090101Y0216450D01*
X0092403Y0216450D01*
X0093170Y0217217D01*
X0093170Y0218752D01*
X0083962Y0219519D02*
X0081660Y0219519D01*
X0080893Y0218752D01*
X0080893Y0217217D01*
X0081660Y0216450D01*
X0083962Y0216450D01*
X0083962Y0221054D01*
X0079358Y0218752D02*
X0079358Y0217985D01*
X0076289Y0217985D01*
X0076289Y0218752D02*
X0077056Y0219519D01*
X0078591Y0219519D01*
X0079358Y0218752D01*
X0078591Y0216450D02*
X0077056Y0216450D01*
X0076289Y0217217D01*
X0076289Y0218752D01*
X0074754Y0218752D02*
X0074754Y0216450D01*
X0074754Y0218752D02*
X0073987Y0219519D01*
X0071685Y0219519D01*
X0071685Y0216450D01*
X0070150Y0216450D02*
X0067848Y0216450D01*
X0067081Y0217217D01*
X0067081Y0218752D01*
X0067848Y0219519D01*
X0070150Y0219519D01*
X0070150Y0215683D01*
X0069383Y0214915D01*
X0068616Y0214915D01*
X0065546Y0216450D02*
X0064012Y0216450D01*
X0064779Y0216450D02*
X0064779Y0219519D01*
X0064012Y0219519D01*
X0062477Y0219519D02*
X0060175Y0219519D01*
X0059408Y0218752D01*
X0060175Y0217985D01*
X0061710Y0217985D01*
X0062477Y0217217D01*
X0061710Y0216450D01*
X0059408Y0216450D01*
X0057873Y0217985D02*
X0054804Y0217985D01*
X0054804Y0218752D02*
X0055571Y0219519D01*
X0057106Y0219519D01*
X0057873Y0218752D01*
X0057873Y0217985D01*
X0057106Y0216450D02*
X0055571Y0216450D01*
X0054804Y0217217D01*
X0054804Y0218752D01*
X0053269Y0220287D02*
X0052502Y0221054D01*
X0050200Y0221054D01*
X0050200Y0216450D01*
X0052502Y0216450D01*
X0053269Y0217217D01*
X0053269Y0220287D01*
X0064779Y0221054D02*
X0064779Y0221821D01*
X0103912Y0220287D02*
X0103912Y0219519D01*
X0104680Y0218752D01*
X0106214Y0218752D01*
X0106982Y0217985D01*
X0106982Y0217217D01*
X0106214Y0216450D01*
X0104680Y0216450D01*
X0103912Y0217217D01*
X0108516Y0217217D02*
X0109284Y0217217D01*
X0109284Y0216450D01*
X0108516Y0216450D01*
X0108516Y0217217D01*
X0110818Y0217217D02*
X0110818Y0216450D01*
X0113888Y0216450D01*
X0115422Y0216450D02*
X0116190Y0216450D01*
X0116190Y0217217D01*
X0115422Y0217217D01*
X0115422Y0216450D01*
X0113888Y0220287D02*
X0110818Y0217217D01*
X0110818Y0221054D02*
X0113888Y0221054D01*
X0113888Y0220287D01*
X0106982Y0220287D02*
X0106214Y0221054D01*
X0104680Y0221054D01*
X0103912Y0220287D01*
D13*
X0102500Y0163750D02*
X0107500Y0163750D01*
X0110000Y0161250D01*
X0112500Y0163750D01*
X0117500Y0163750D01*
X0120000Y0161250D01*
X0120000Y0156250D01*
X0117500Y0153750D01*
X0112500Y0153750D01*
X0110000Y0156250D01*
X0107500Y0153750D01*
X0102500Y0153750D01*
X0100000Y0156250D01*
X0097500Y0153750D01*
X0092500Y0153750D01*
X0090000Y0156250D01*
X0087500Y0153750D01*
X0082500Y0153750D01*
X0080000Y0156250D01*
X0077500Y0153750D01*
X0072500Y0153750D01*
X0070000Y0156250D01*
X0067500Y0153750D01*
X0062500Y0153750D01*
X0060000Y0156250D01*
X0060000Y0161250D01*
X0062500Y0163750D01*
X0067500Y0163750D01*
X0070000Y0161250D01*
X0072500Y0163750D01*
X0077500Y0163750D01*
X0080000Y0161250D01*
X0080000Y0156250D01*
X0080000Y0161250D02*
X0082500Y0163750D01*
X0087500Y0163750D01*
X0090000Y0161250D01*
X0092500Y0163750D01*
X0097500Y0163750D01*
X0100000Y0161250D01*
X0102500Y0163750D01*
X0100000Y0161250D02*
X0100000Y0156250D01*
X0090000Y0156250D02*
X0090000Y0161250D01*
X0089570Y0149205D02*
X0089570Y0142800D01*
X0091745Y0144935D02*
X0093881Y0142800D01*
X0096016Y0144935D01*
X0096016Y0149205D01*
X0091745Y0149205D02*
X0091745Y0144935D01*
X0089570Y0146003D02*
X0085300Y0146003D01*
X0085300Y0149205D02*
X0085300Y0142800D01*
X0070000Y0156250D02*
X0070000Y0161250D01*
X0110000Y0161250D02*
X0110000Y0156250D01*
X0125000Y0156250D02*
X0127500Y0153750D01*
X0132500Y0153750D01*
X0135000Y0156250D01*
X0137500Y0153750D01*
X0142500Y0153750D01*
X0145000Y0156250D01*
X0145000Y0161250D01*
X0142500Y0163750D01*
X0137500Y0163750D01*
X0135000Y0161250D01*
X0135000Y0156250D01*
X0135000Y0161250D02*
X0132500Y0163750D01*
X0127500Y0163750D01*
X0125000Y0161250D01*
X0125000Y0156250D01*
X0145000Y0156250D02*
X0147500Y0153750D01*
X0152500Y0153750D01*
X0155000Y0156250D01*
X0157500Y0153750D01*
X0162500Y0153750D01*
X0165000Y0156250D01*
X0167500Y0153750D01*
X0172500Y0153750D01*
X0175000Y0156250D01*
X0177500Y0153750D01*
X0182500Y0153750D01*
X0185000Y0156250D01*
X0185000Y0161250D01*
X0182500Y0163750D01*
X0177500Y0163750D01*
X0175000Y0161250D01*
X0175000Y0156250D01*
X0175000Y0161250D02*
X0172500Y0163750D01*
X0167500Y0163750D01*
X0165000Y0161250D01*
X0165000Y0156250D01*
X0165000Y0161250D02*
X0162500Y0163750D01*
X0157500Y0163750D01*
X0155000Y0161250D01*
X0155000Y0156250D01*
X0155000Y0161250D02*
X0152500Y0163750D01*
X0147500Y0163750D01*
X0145000Y0161250D01*
X0150300Y0150455D02*
X0150300Y0144050D01*
X0150300Y0147253D02*
X0154570Y0147253D01*
X0156745Y0146185D02*
X0158881Y0144050D01*
X0161016Y0146185D01*
X0161016Y0150455D01*
X0156745Y0150455D02*
X0156745Y0146185D01*
X0154570Y0144050D02*
X0154570Y0150455D01*
X0190000Y0156250D02*
X0192500Y0153750D01*
X0197500Y0153750D01*
X0200000Y0156250D01*
X0202500Y0153750D01*
X0207500Y0153750D01*
X0210000Y0156250D01*
X0210000Y0161250D01*
X0207500Y0163750D01*
X0202500Y0163750D01*
X0200000Y0161250D01*
X0200000Y0156250D01*
X0200000Y0161250D02*
X0197500Y0163750D01*
X0192500Y0163750D01*
X0190000Y0161250D01*
X0190000Y0156250D01*
X0210000Y0156250D02*
X0212500Y0153750D01*
X0217500Y0153750D01*
X0220000Y0156250D01*
X0222500Y0153750D01*
X0227500Y0153750D01*
X0230000Y0156250D01*
X0232500Y0153750D01*
X0237500Y0153750D01*
X0240000Y0156250D01*
X0242500Y0153750D01*
X0247500Y0153750D01*
X0250000Y0156250D01*
X0250000Y0161250D01*
X0247500Y0163750D01*
X0242500Y0163750D01*
X0240000Y0161250D01*
X0240000Y0156250D01*
X0240000Y0161250D02*
X0237500Y0163750D01*
X0232500Y0163750D01*
X0230000Y0161250D01*
X0230000Y0156250D01*
X0230000Y0161250D02*
X0227500Y0163750D01*
X0222500Y0163750D01*
X0220000Y0161250D01*
X0220000Y0156250D01*
X0220000Y0161250D02*
X0217500Y0163750D01*
X0212500Y0163750D01*
X0210000Y0161250D01*
X0215300Y0150455D02*
X0215300Y0144050D01*
X0215300Y0147253D02*
X0219570Y0147253D01*
X0221745Y0146185D02*
X0223881Y0144050D01*
X0226016Y0146185D01*
X0226016Y0150455D01*
X0221745Y0150455D02*
X0221745Y0146185D01*
X0219570Y0144050D02*
X0219570Y0150455D01*
X0221745Y0125455D02*
X0221745Y0121185D01*
X0223881Y0119050D01*
X0226016Y0121185D01*
X0226016Y0125455D01*
X0215300Y0125455D02*
X0215300Y0119050D01*
X0219570Y0119050D01*
X0217500Y0113750D02*
X0212500Y0113750D01*
X0210000Y0111250D01*
X0210000Y0106250D01*
X0207500Y0103750D01*
X0202500Y0103750D01*
X0200000Y0106250D01*
X0197500Y0103750D01*
X0192500Y0103750D01*
X0190000Y0106250D01*
X0190000Y0111250D01*
X0192500Y0113750D01*
X0197500Y0113750D01*
X0200000Y0111250D01*
X0202500Y0113750D01*
X0207500Y0113750D01*
X0210000Y0111250D01*
X0210000Y0106250D02*
X0212500Y0103750D01*
X0217500Y0103750D01*
X0220000Y0106250D01*
X0222500Y0103750D01*
X0227500Y0103750D01*
X0230000Y0106250D01*
X0232500Y0103750D01*
X0237500Y0103750D01*
X0240000Y0106250D01*
X0242500Y0103750D01*
X0247500Y0103750D01*
X0250000Y0106250D01*
X0250000Y0111250D01*
X0247500Y0113750D01*
X0242500Y0113750D01*
X0240000Y0111250D01*
X0240000Y0106250D01*
X0240000Y0111250D02*
X0237500Y0113750D01*
X0232500Y0113750D01*
X0230000Y0111250D01*
X0230000Y0106250D01*
X0230000Y0111250D02*
X0227500Y0113750D01*
X0222500Y0113750D01*
X0220000Y0111250D01*
X0220000Y0106250D01*
X0220000Y0111250D02*
X0217500Y0113750D01*
X0200000Y0111250D02*
X0200000Y0106250D01*
X0185000Y0106250D02*
X0182500Y0103750D01*
X0177500Y0103750D01*
X0175000Y0106250D01*
X0172500Y0103750D01*
X0167500Y0103750D01*
X0165000Y0106250D01*
X0162500Y0103750D01*
X0157500Y0103750D01*
X0155000Y0106250D01*
X0152500Y0103750D01*
X0147500Y0103750D01*
X0145000Y0106250D01*
X0142500Y0103750D01*
X0137500Y0103750D01*
X0135000Y0106250D01*
X0132500Y0103750D01*
X0127500Y0103750D01*
X0125000Y0106250D01*
X0125000Y0111250D01*
X0127500Y0113750D01*
X0132500Y0113750D01*
X0135000Y0111250D01*
X0137500Y0113750D01*
X0142500Y0113750D01*
X0145000Y0111250D01*
X0145000Y0106250D01*
X0145000Y0111250D02*
X0147500Y0113750D01*
X0152500Y0113750D01*
X0155000Y0111250D01*
X0157500Y0113750D01*
X0162500Y0113750D01*
X0165000Y0111250D01*
X0167500Y0113750D01*
X0172500Y0113750D01*
X0175000Y0111250D01*
X0177500Y0113750D01*
X0182500Y0113750D01*
X0185000Y0111250D01*
X0185000Y0106250D01*
X0175000Y0106250D02*
X0175000Y0111250D01*
X0165000Y0111250D02*
X0165000Y0106250D01*
X0155000Y0106250D02*
X0155000Y0111250D01*
X0154570Y0117800D02*
X0150300Y0117800D01*
X0150300Y0124205D01*
X0156745Y0124205D02*
X0156745Y0119935D01*
X0158881Y0117800D01*
X0161016Y0119935D01*
X0161016Y0124205D01*
X0135000Y0111250D02*
X0135000Y0106250D01*
X0120000Y0106250D02*
X0117500Y0103750D01*
X0112500Y0103750D01*
X0110000Y0106250D01*
X0107500Y0103750D01*
X0102500Y0103750D01*
X0100000Y0106250D01*
X0097500Y0103750D01*
X0092500Y0103750D01*
X0090000Y0106250D01*
X0087500Y0103750D01*
X0082500Y0103750D01*
X0080000Y0106250D01*
X0077500Y0103750D01*
X0072500Y0103750D01*
X0070000Y0106250D01*
X0067500Y0103750D01*
X0062500Y0103750D01*
X0060000Y0106250D01*
X0060000Y0111250D01*
X0062500Y0113750D01*
X0067500Y0113750D01*
X0070000Y0111250D01*
X0072500Y0113750D01*
X0077500Y0113750D01*
X0080000Y0111250D01*
X0080000Y0106250D01*
X0080000Y0111250D02*
X0082500Y0113750D01*
X0087500Y0113750D01*
X0090000Y0111250D01*
X0092500Y0113750D01*
X0097500Y0113750D01*
X0100000Y0111250D01*
X0102500Y0113750D01*
X0107500Y0113750D01*
X0110000Y0111250D01*
X0112500Y0113750D01*
X0117500Y0113750D01*
X0120000Y0111250D01*
X0120000Y0106250D01*
X0110000Y0106250D02*
X0110000Y0111250D01*
X0100000Y0111250D02*
X0100000Y0106250D01*
X0090000Y0106250D02*
X0090000Y0111250D01*
X0089570Y0117800D02*
X0085300Y0117800D01*
X0085300Y0124205D01*
X0091745Y0124205D02*
X0091745Y0119935D01*
X0093881Y0117800D01*
X0096016Y0119935D01*
X0096016Y0124205D01*
X0070000Y0111250D02*
X0070000Y0106250D01*
X0152500Y0080500D02*
X0160000Y0080500D01*
X0160000Y0077000D01*
X0166000Y0077000D01*
X0166000Y0080500D01*
X0215000Y0080500D01*
X0215000Y0039500D01*
X0166000Y0039500D01*
X0166000Y0043000D01*
X0160000Y0043000D01*
X0160000Y0039500D01*
X0152500Y0039500D01*
X0152500Y0080500D01*
X0158900Y0060000D02*
X0158902Y0060174D01*
X0158909Y0060348D01*
X0158919Y0060522D01*
X0158934Y0060696D01*
X0158953Y0060869D01*
X0158977Y0061042D01*
X0159005Y0061214D01*
X0159036Y0061385D01*
X0159073Y0061556D01*
X0159113Y0061725D01*
X0159157Y0061894D01*
X0159206Y0062061D01*
X0159258Y0062227D01*
X0159315Y0062392D01*
X0159376Y0062555D01*
X0159440Y0062717D01*
X0159509Y0062877D01*
X0159582Y0063036D01*
X0159658Y0063192D01*
X0159738Y0063347D01*
X0159822Y0063500D01*
X0159910Y0063650D01*
X0160002Y0063798D01*
X0160097Y0063945D01*
X0160195Y0064088D01*
X0160297Y0064229D01*
X0160403Y0064368D01*
X0160512Y0064504D01*
X0160624Y0064638D01*
X0160739Y0064768D01*
X0160858Y0064896D01*
X0160980Y0065020D01*
X0161104Y0065142D01*
X0161232Y0065261D01*
X0161362Y0065376D01*
X0161496Y0065488D01*
X0161632Y0065597D01*
X0161771Y0065703D01*
X0161912Y0065805D01*
X0162055Y0065903D01*
X0162202Y0065998D01*
X0162350Y0066090D01*
X0162500Y0066178D01*
X0162653Y0066262D01*
X0162808Y0066342D01*
X0162964Y0066418D01*
X0163123Y0066491D01*
X0163283Y0066560D01*
X0163445Y0066624D01*
X0163608Y0066685D01*
X0163773Y0066742D01*
X0163939Y0066794D01*
X0164106Y0066843D01*
X0164275Y0066887D01*
X0164444Y0066927D01*
X0164615Y0066964D01*
X0164786Y0066995D01*
X0164958Y0067023D01*
X0165131Y0067047D01*
X0165304Y0067066D01*
X0165478Y0067081D01*
X0165652Y0067091D01*
X0165826Y0067098D01*
X0166000Y0067100D01*
X0166174Y0067098D01*
X0166348Y0067091D01*
X0166522Y0067081D01*
X0166696Y0067066D01*
X0166869Y0067047D01*
X0167042Y0067023D01*
X0167214Y0066995D01*
X0167385Y0066964D01*
X0167556Y0066927D01*
X0167725Y0066887D01*
X0167894Y0066843D01*
X0168061Y0066794D01*
X0168227Y0066742D01*
X0168392Y0066685D01*
X0168555Y0066624D01*
X0168717Y0066560D01*
X0168877Y0066491D01*
X0169036Y0066418D01*
X0169192Y0066342D01*
X0169347Y0066262D01*
X0169500Y0066178D01*
X0169650Y0066090D01*
X0169798Y0065998D01*
X0169945Y0065903D01*
X0170088Y0065805D01*
X0170229Y0065703D01*
X0170368Y0065597D01*
X0170504Y0065488D01*
X0170638Y0065376D01*
X0170768Y0065261D01*
X0170896Y0065142D01*
X0171020Y0065020D01*
X0171142Y0064896D01*
X0171261Y0064768D01*
X0171376Y0064638D01*
X0171488Y0064504D01*
X0171597Y0064368D01*
X0171703Y0064229D01*
X0171805Y0064088D01*
X0171903Y0063945D01*
X0171998Y0063798D01*
X0172090Y0063650D01*
X0172178Y0063500D01*
X0172262Y0063347D01*
X0172342Y0063192D01*
X0172418Y0063036D01*
X0172491Y0062877D01*
X0172560Y0062717D01*
X0172624Y0062555D01*
X0172685Y0062392D01*
X0172742Y0062227D01*
X0172794Y0062061D01*
X0172843Y0061894D01*
X0172887Y0061725D01*
X0172927Y0061556D01*
X0172964Y0061385D01*
X0172995Y0061214D01*
X0173023Y0061042D01*
X0173047Y0060869D01*
X0173066Y0060696D01*
X0173081Y0060522D01*
X0173091Y0060348D01*
X0173098Y0060174D01*
X0173100Y0060000D01*
X0173098Y0059826D01*
X0173091Y0059652D01*
X0173081Y0059478D01*
X0173066Y0059304D01*
X0173047Y0059131D01*
X0173023Y0058958D01*
X0172995Y0058786D01*
X0172964Y0058615D01*
X0172927Y0058444D01*
X0172887Y0058275D01*
X0172843Y0058106D01*
X0172794Y0057939D01*
X0172742Y0057773D01*
X0172685Y0057608D01*
X0172624Y0057445D01*
X0172560Y0057283D01*
X0172491Y0057123D01*
X0172418Y0056964D01*
X0172342Y0056808D01*
X0172262Y0056653D01*
X0172178Y0056500D01*
X0172090Y0056350D01*
X0171998Y0056202D01*
X0171903Y0056055D01*
X0171805Y0055912D01*
X0171703Y0055771D01*
X0171597Y0055632D01*
X0171488Y0055496D01*
X0171376Y0055362D01*
X0171261Y0055232D01*
X0171142Y0055104D01*
X0171020Y0054980D01*
X0170896Y0054858D01*
X0170768Y0054739D01*
X0170638Y0054624D01*
X0170504Y0054512D01*
X0170368Y0054403D01*
X0170229Y0054297D01*
X0170088Y0054195D01*
X0169945Y0054097D01*
X0169798Y0054002D01*
X0169650Y0053910D01*
X0169500Y0053822D01*
X0169347Y0053738D01*
X0169192Y0053658D01*
X0169036Y0053582D01*
X0168877Y0053509D01*
X0168717Y0053440D01*
X0168555Y0053376D01*
X0168392Y0053315D01*
X0168227Y0053258D01*
X0168061Y0053206D01*
X0167894Y0053157D01*
X0167725Y0053113D01*
X0167556Y0053073D01*
X0167385Y0053036D01*
X0167214Y0053005D01*
X0167042Y0052977D01*
X0166869Y0052953D01*
X0166696Y0052934D01*
X0166522Y0052919D01*
X0166348Y0052909D01*
X0166174Y0052902D01*
X0166000Y0052900D01*
X0165826Y0052902D01*
X0165652Y0052909D01*
X0165478Y0052919D01*
X0165304Y0052934D01*
X0165131Y0052953D01*
X0164958Y0052977D01*
X0164786Y0053005D01*
X0164615Y0053036D01*
X0164444Y0053073D01*
X0164275Y0053113D01*
X0164106Y0053157D01*
X0163939Y0053206D01*
X0163773Y0053258D01*
X0163608Y0053315D01*
X0163445Y0053376D01*
X0163283Y0053440D01*
X0163123Y0053509D01*
X0162964Y0053582D01*
X0162808Y0053658D01*
X0162653Y0053738D01*
X0162500Y0053822D01*
X0162350Y0053910D01*
X0162202Y0054002D01*
X0162055Y0054097D01*
X0161912Y0054195D01*
X0161771Y0054297D01*
X0161632Y0054403D01*
X0161496Y0054512D01*
X0161362Y0054624D01*
X0161232Y0054739D01*
X0161104Y0054858D01*
X0160980Y0054980D01*
X0160858Y0055104D01*
X0160739Y0055232D01*
X0160624Y0055362D01*
X0160512Y0055496D01*
X0160403Y0055632D01*
X0160297Y0055771D01*
X0160195Y0055912D01*
X0160097Y0056055D01*
X0160002Y0056202D01*
X0159910Y0056350D01*
X0159822Y0056500D01*
X0159738Y0056653D01*
X0159658Y0056808D01*
X0159582Y0056964D01*
X0159509Y0057123D01*
X0159440Y0057283D01*
X0159376Y0057445D01*
X0159315Y0057608D01*
X0159258Y0057773D01*
X0159206Y0057939D01*
X0159157Y0058106D01*
X0159113Y0058275D01*
X0159073Y0058444D01*
X0159036Y0058615D01*
X0159005Y0058786D01*
X0158977Y0058958D01*
X0158953Y0059131D01*
X0158934Y0059304D01*
X0158919Y0059478D01*
X0158909Y0059652D01*
X0158902Y0059826D01*
X0158900Y0060000D01*
X0105538Y0048570D02*
X0105538Y0047503D01*
X0104471Y0047503D01*
X0104471Y0048570D01*
X0105538Y0048570D01*
X0105538Y0045368D02*
X0104471Y0045368D01*
X0104471Y0044300D01*
X0105538Y0044300D01*
X0105538Y0045368D01*
X0102295Y0044300D02*
X0100160Y0046435D01*
X0101228Y0046435D02*
X0098025Y0046435D01*
X0098025Y0044300D02*
X0098025Y0050705D01*
X0101228Y0050705D01*
X0102295Y0049638D01*
X0102295Y0047503D01*
X0101228Y0046435D01*
X0095850Y0044300D02*
X0091580Y0044300D01*
X0091580Y0050705D01*
X0095850Y0050705D01*
X0093715Y0047503D02*
X0091580Y0047503D01*
X0089404Y0048570D02*
X0088337Y0047503D01*
X0085134Y0047503D01*
X0085134Y0050705D02*
X0085134Y0044300D01*
X0088337Y0044300D01*
X0089404Y0045368D01*
X0089404Y0046435D01*
X0088337Y0047503D01*
X0089404Y0048570D02*
X0089404Y0049638D01*
X0088337Y0050705D01*
X0085134Y0050705D01*
X0082959Y0050705D02*
X0080824Y0048570D01*
X0078689Y0050705D01*
X0078689Y0044300D01*
X0076513Y0044300D02*
X0072243Y0044300D01*
X0072243Y0050705D01*
X0076513Y0050705D01*
X0074378Y0047503D02*
X0072243Y0047503D01*
X0070068Y0050705D02*
X0070068Y0044300D01*
X0065798Y0044300D02*
X0065798Y0050705D01*
X0067933Y0048570D01*
X0070068Y0050705D01*
X0063622Y0050705D02*
X0059352Y0050705D01*
X0059352Y0044300D01*
X0063622Y0044300D01*
X0061487Y0047503D02*
X0059352Y0047503D01*
X0057177Y0047503D02*
X0056109Y0046435D01*
X0052907Y0046435D01*
X0055042Y0046435D02*
X0057177Y0044300D01*
X0057177Y0047503D02*
X0057177Y0049638D01*
X0056109Y0050705D01*
X0052907Y0050705D01*
X0052907Y0044300D01*
X0082959Y0044300D02*
X0082959Y0050705D01*
X0062500Y0012500D02*
X0047500Y0012500D01*
X0047500Y0011250D02*
X0062500Y0011250D01*
X0282545Y0123300D02*
X0282545Y0129705D01*
X0285748Y0129705D01*
X0286816Y0128638D01*
X0286816Y0126503D01*
X0285748Y0125435D01*
X0282545Y0125435D01*
X0284680Y0125435D02*
X0286816Y0123300D01*
X0288991Y0123300D02*
X0288991Y0127570D01*
X0291126Y0129705D01*
X0293261Y0127570D01*
X0293261Y0123300D01*
X0295436Y0123300D02*
X0295436Y0129705D01*
X0297571Y0127570D01*
X0299707Y0129705D01*
X0299707Y0123300D01*
X0301882Y0123300D02*
X0301882Y0129705D01*
X0305084Y0129705D01*
X0306152Y0128638D01*
X0306152Y0126503D01*
X0305084Y0125435D01*
X0301882Y0125435D01*
X0308327Y0124368D02*
X0309395Y0123300D01*
X0311530Y0123300D01*
X0312598Y0124368D01*
X0312598Y0125435D01*
X0311530Y0126503D01*
X0309395Y0126503D01*
X0308327Y0127570D01*
X0308327Y0128638D01*
X0309395Y0129705D01*
X0311530Y0129705D01*
X0312598Y0128638D01*
X0321218Y0129705D02*
X0321218Y0123300D01*
X0324421Y0123300D01*
X0325489Y0124368D01*
X0325489Y0128638D01*
X0324421Y0129705D01*
X0321218Y0129705D01*
X0327664Y0127570D02*
X0327664Y0124368D01*
X0328731Y0123300D01*
X0331934Y0123300D01*
X0331934Y0127570D01*
X0334109Y0126503D02*
X0335177Y0127570D01*
X0337312Y0127570D01*
X0338380Y0126503D01*
X0338380Y0125435D01*
X0334109Y0125435D01*
X0334109Y0124368D02*
X0334109Y0126503D01*
X0334109Y0124368D02*
X0335177Y0123300D01*
X0337312Y0123300D01*
X0336238Y0117070D02*
X0335170Y0117070D01*
X0333035Y0114935D01*
X0333035Y0112800D02*
X0333035Y0117070D01*
X0330860Y0116003D02*
X0330860Y0114935D01*
X0326589Y0114935D01*
X0326589Y0113868D02*
X0326589Y0116003D01*
X0327657Y0117070D01*
X0329792Y0117070D01*
X0330860Y0116003D01*
X0329792Y0112800D02*
X0327657Y0112800D01*
X0326589Y0113868D01*
X0324428Y0112800D02*
X0323360Y0113868D01*
X0323360Y0118138D01*
X0322292Y0117070D02*
X0324428Y0117070D01*
X0320124Y0117070D02*
X0319056Y0117070D01*
X0316921Y0114935D01*
X0316921Y0112800D02*
X0316921Y0117070D01*
X0314746Y0116003D02*
X0314746Y0114935D01*
X0310476Y0114935D01*
X0310476Y0113868D02*
X0310476Y0116003D01*
X0311543Y0117070D01*
X0313678Y0117070D01*
X0314746Y0116003D01*
X0313678Y0112800D02*
X0311543Y0112800D01*
X0310476Y0113868D01*
X0308301Y0117070D02*
X0306165Y0112800D01*
X0304030Y0117070D01*
X0301855Y0116003D02*
X0301855Y0112800D01*
X0301855Y0116003D02*
X0300787Y0117070D01*
X0297585Y0117070D01*
X0297585Y0112800D01*
X0295410Y0113868D02*
X0295410Y0116003D01*
X0294342Y0117070D01*
X0292207Y0117070D01*
X0291139Y0116003D01*
X0291139Y0113868D01*
X0292207Y0112800D01*
X0294342Y0112800D01*
X0295410Y0113868D01*
X0288964Y0113868D02*
X0287896Y0112800D01*
X0285761Y0112800D01*
X0284694Y0113868D01*
X0284694Y0118138D01*
X0285761Y0119205D01*
X0287896Y0119205D01*
X0288964Y0118138D01*
X0288991Y0126503D02*
X0293261Y0126503D01*
X0310000Y0169000D02*
X0350000Y0169000D01*
X0350000Y0191000D01*
X0310000Y0191000D01*
X0310000Y0182500D01*
X0310098Y0182498D01*
X0310196Y0182492D01*
X0310294Y0182483D01*
X0310391Y0182469D01*
X0310488Y0182452D01*
X0310584Y0182431D01*
X0310679Y0182406D01*
X0310773Y0182378D01*
X0310865Y0182345D01*
X0310957Y0182310D01*
X0311047Y0182270D01*
X0311135Y0182228D01*
X0311222Y0182181D01*
X0311306Y0182132D01*
X0311389Y0182079D01*
X0311469Y0182023D01*
X0311548Y0181963D01*
X0311624Y0181901D01*
X0311697Y0181836D01*
X0311768Y0181768D01*
X0311836Y0181697D01*
X0311901Y0181624D01*
X0311963Y0181548D01*
X0312023Y0181469D01*
X0312079Y0181389D01*
X0312132Y0181306D01*
X0312181Y0181222D01*
X0312228Y0181135D01*
X0312270Y0181047D01*
X0312310Y0180957D01*
X0312345Y0180865D01*
X0312378Y0180773D01*
X0312406Y0180679D01*
X0312431Y0180584D01*
X0312452Y0180488D01*
X0312469Y0180391D01*
X0312483Y0180294D01*
X0312492Y0180196D01*
X0312498Y0180098D01*
X0312500Y0180000D01*
X0312498Y0179902D01*
X0312492Y0179804D01*
X0312483Y0179706D01*
X0312469Y0179609D01*
X0312452Y0179512D01*
X0312431Y0179416D01*
X0312406Y0179321D01*
X0312378Y0179227D01*
X0312345Y0179135D01*
X0312310Y0179043D01*
X0312270Y0178953D01*
X0312228Y0178865D01*
X0312181Y0178778D01*
X0312132Y0178694D01*
X0312079Y0178611D01*
X0312023Y0178531D01*
X0311963Y0178452D01*
X0311901Y0178376D01*
X0311836Y0178303D01*
X0311768Y0178232D01*
X0311697Y0178164D01*
X0311624Y0178099D01*
X0311548Y0178037D01*
X0311469Y0177977D01*
X0311389Y0177921D01*
X0311306Y0177868D01*
X0311222Y0177819D01*
X0311135Y0177772D01*
X0311047Y0177730D01*
X0310957Y0177690D01*
X0310865Y0177655D01*
X0310773Y0177622D01*
X0310679Y0177594D01*
X0310584Y0177569D01*
X0310488Y0177548D01*
X0310391Y0177531D01*
X0310294Y0177517D01*
X0310196Y0177508D01*
X0310098Y0177502D01*
X0310000Y0177500D01*
X0310000Y0169000D01*
X0382770Y0230185D02*
X0384906Y0228050D01*
X0387041Y0230185D01*
X0387041Y0234455D01*
X0389216Y0232320D02*
X0391351Y0234455D01*
X0391351Y0228050D01*
X0389216Y0228050D02*
X0393486Y0228050D01*
X0395661Y0228050D02*
X0396729Y0228050D01*
X0396729Y0229118D01*
X0395661Y0229118D01*
X0395661Y0228050D01*
X0398884Y0229118D02*
X0403154Y0233388D01*
X0403154Y0229118D01*
X0402087Y0228050D01*
X0399952Y0228050D01*
X0398884Y0229118D01*
X0398884Y0233388D01*
X0399952Y0234455D01*
X0402087Y0234455D01*
X0403154Y0233388D01*
X0382770Y0234455D02*
X0382770Y0230185D01*
X0419295Y0180482D02*
X0419295Y0178347D01*
X0419295Y0179415D02*
X0425700Y0179415D01*
X0425700Y0180482D02*
X0425700Y0178347D01*
X0422497Y0176172D02*
X0423565Y0175104D01*
X0423565Y0171901D01*
X0425700Y0171901D02*
X0419295Y0171901D01*
X0419295Y0175104D01*
X0420362Y0176172D01*
X0422497Y0176172D01*
X0423565Y0169726D02*
X0424632Y0169726D01*
X0425700Y0168659D01*
X0425700Y0166524D01*
X0424632Y0165456D01*
X0422497Y0166524D02*
X0421430Y0165456D01*
X0420362Y0165456D01*
X0419295Y0166524D01*
X0419295Y0168659D01*
X0420362Y0169726D01*
X0422497Y0168659D02*
X0423565Y0169726D01*
X0422497Y0168659D02*
X0422497Y0166524D01*
X0420000Y0162500D02*
X0425000Y0162500D01*
X0427500Y0160000D01*
X0427500Y0155000D01*
X0425000Y0152500D01*
X0427500Y0150000D01*
X0427500Y0145000D01*
X0425000Y0142500D01*
X0427500Y0140000D01*
X0427500Y0135000D01*
X0425000Y0132500D01*
X0427500Y0130000D01*
X0427500Y0125000D01*
X0425000Y0122500D01*
X0427500Y0120000D01*
X0427500Y0115000D01*
X0425000Y0112500D01*
X0427500Y0110000D01*
X0427500Y0105000D01*
X0425000Y0102500D01*
X0420000Y0102500D01*
X0417500Y0105000D01*
X0417500Y0110000D01*
X0420000Y0112500D01*
X0417500Y0115000D01*
X0417500Y0120000D01*
X0420000Y0122500D01*
X0425000Y0122500D01*
X0420000Y0122500D02*
X0417500Y0125000D01*
X0417500Y0130000D01*
X0420000Y0132500D01*
X0417500Y0135000D01*
X0417500Y0140000D01*
X0420000Y0142500D01*
X0417500Y0145000D01*
X0417500Y0150000D01*
X0420000Y0152500D01*
X0417500Y0155000D01*
X0417500Y0160000D01*
X0420000Y0162500D01*
X0420000Y0152500D02*
X0425000Y0152500D01*
X0425000Y0142500D02*
X0420000Y0142500D01*
X0420000Y0132500D02*
X0425000Y0132500D01*
X0425000Y0112500D02*
X0420000Y0112500D01*
X0422862Y0047442D02*
X0421795Y0046374D01*
X0421795Y0044239D01*
X0422862Y0043171D01*
X0427132Y0043171D01*
X0428200Y0044239D01*
X0428200Y0046374D01*
X0427132Y0047442D01*
X0427132Y0040996D02*
X0428200Y0039928D01*
X0428200Y0037793D01*
X0427132Y0036726D01*
X0424997Y0037793D02*
X0424997Y0039928D01*
X0426065Y0040996D01*
X0427132Y0040996D01*
X0424997Y0037793D02*
X0423930Y0036726D01*
X0422862Y0036726D01*
X0421795Y0037793D01*
X0421795Y0039928D01*
X0422862Y0040996D01*
X0421795Y0034564D02*
X0421795Y0032429D01*
X0421795Y0033496D02*
X0428200Y0033496D01*
X0428200Y0032429D02*
X0428200Y0034564D01*
X0428200Y0030254D02*
X0421795Y0030254D01*
X0423930Y0028118D01*
X0421795Y0025983D01*
X0428200Y0025983D01*
X0427500Y0023750D02*
X0422500Y0023750D01*
X0420000Y0021250D01*
X0420000Y0016250D01*
X0422500Y0013750D01*
X0427500Y0013750D01*
X0430000Y0016250D01*
X0430000Y0021250D01*
X0427500Y0023750D01*
X0420000Y0021250D02*
X0417500Y0023750D01*
X0412500Y0023750D01*
X0410000Y0021250D01*
X0410000Y0016250D01*
X0412500Y0013750D01*
X0417500Y0013750D01*
X0420000Y0016250D01*
X0410000Y0016250D02*
X0407500Y0013750D01*
X0402500Y0013750D01*
X0400000Y0016250D01*
X0397500Y0013750D01*
X0392500Y0013750D01*
X0390000Y0016250D01*
X0387500Y0013750D01*
X0382500Y0013750D01*
X0380000Y0016250D01*
X0377500Y0013750D01*
X0372500Y0013750D01*
X0370000Y0016250D01*
X0370000Y0021250D01*
X0372500Y0023750D01*
X0377500Y0023750D01*
X0380000Y0021250D01*
X0382500Y0023750D01*
X0387500Y0023750D01*
X0390000Y0021250D01*
X0390000Y0016250D01*
X0390000Y0021250D02*
X0392500Y0023750D01*
X0397500Y0023750D01*
X0400000Y0021250D01*
X0402500Y0023750D01*
X0407500Y0023750D01*
X0410000Y0021250D01*
X0400000Y0021250D02*
X0400000Y0016250D01*
X0380000Y0016250D02*
X0380000Y0021250D01*
D14*
X0379081Y0012302D02*
X0379448Y0011935D01*
X0377980Y0010467D01*
X0378347Y0010100D01*
X0379081Y0010100D01*
X0379448Y0010467D01*
X0379448Y0011935D01*
X0379081Y0012302D02*
X0378347Y0012302D01*
X0377980Y0011935D01*
X0377980Y0010467D01*
X0377238Y0010467D02*
X0376871Y0010100D01*
X0376137Y0010100D01*
X0375770Y0010467D01*
X0375770Y0011935D01*
X0376137Y0012302D01*
X0376871Y0012302D01*
X0377238Y0011935D01*
X0375028Y0011568D02*
X0374294Y0012302D01*
X0373560Y0011568D01*
X0373560Y0010100D01*
X0372818Y0010467D02*
X0372818Y0011935D01*
X0372451Y0012302D01*
X0371350Y0012302D01*
X0371350Y0010100D01*
X0372451Y0010100D01*
X0372818Y0010467D01*
X0373560Y0011201D02*
X0375028Y0011201D01*
X0375028Y0011568D02*
X0375028Y0010100D01*
X0381350Y0010100D02*
X0382451Y0010100D01*
X0382818Y0010467D01*
X0382818Y0011935D01*
X0382451Y0012302D01*
X0381350Y0012302D01*
X0381350Y0010100D01*
X0383560Y0010100D02*
X0383560Y0011568D01*
X0384294Y0012302D01*
X0385028Y0011568D01*
X0385028Y0010100D01*
X0385770Y0010467D02*
X0386137Y0010100D01*
X0386871Y0010100D01*
X0387238Y0010467D01*
X0387980Y0010100D02*
X0389448Y0010100D01*
X0388714Y0010100D02*
X0388714Y0012302D01*
X0387980Y0011568D01*
X0387238Y0011935D02*
X0386871Y0012302D01*
X0386137Y0012302D01*
X0385770Y0011935D01*
X0385770Y0010467D01*
X0385028Y0011201D02*
X0383560Y0011201D01*
X0397698Y0025467D02*
X0398065Y0025100D01*
X0399533Y0025100D01*
X0399900Y0025467D01*
X0399900Y0026201D01*
X0399533Y0026568D01*
X0399900Y0027310D02*
X0398432Y0027310D01*
X0397698Y0028044D01*
X0398432Y0028778D01*
X0399900Y0028778D01*
X0399900Y0029520D02*
X0397698Y0029520D01*
X0399900Y0030988D01*
X0397698Y0030988D01*
X0397698Y0031730D02*
X0397698Y0032831D01*
X0398065Y0033198D01*
X0398799Y0033198D01*
X0399166Y0032831D01*
X0399166Y0031730D01*
X0399166Y0032464D02*
X0399900Y0033198D01*
X0399900Y0033940D02*
X0397698Y0035407D01*
X0397698Y0033940D02*
X0399900Y0035407D01*
X0406448Y0035407D02*
X0408650Y0033940D01*
X0408650Y0035407D02*
X0406448Y0033940D01*
X0406448Y0033198D02*
X0406448Y0031730D01*
X0406448Y0032464D02*
X0408650Y0032464D01*
X0408650Y0030988D02*
X0406448Y0030988D01*
X0406448Y0029520D02*
X0408650Y0030988D01*
X0408650Y0029520D02*
X0406448Y0029520D01*
X0407182Y0028778D02*
X0408650Y0028778D01*
X0407549Y0028778D02*
X0407549Y0027310D01*
X0407182Y0027310D02*
X0408650Y0027310D01*
X0408283Y0026568D02*
X0408650Y0026201D01*
X0408650Y0025467D01*
X0408283Y0025100D01*
X0406815Y0025100D01*
X0406448Y0025467D01*
X0406448Y0026201D01*
X0406815Y0026568D01*
X0407182Y0027310D02*
X0406448Y0028044D01*
X0407182Y0028778D01*
X0399900Y0031730D02*
X0397698Y0031730D01*
X0398799Y0028778D02*
X0398799Y0027310D01*
X0398065Y0026568D02*
X0397698Y0026201D01*
X0397698Y0025467D01*
X0410889Y0010785D02*
X0410889Y0009317D01*
X0410156Y0010051D02*
X0411623Y0010051D01*
X0412365Y0010785D02*
X0412732Y0011152D01*
X0413466Y0011152D01*
X0413833Y0010785D01*
X0413833Y0010418D01*
X0413466Y0010051D01*
X0413833Y0009684D01*
X0413833Y0009317D01*
X0413466Y0008950D01*
X0412732Y0008950D01*
X0412365Y0009317D01*
X0413099Y0010051D02*
X0413466Y0010051D01*
X0414575Y0009317D02*
X0414942Y0009317D01*
X0414942Y0008950D01*
X0414575Y0008950D01*
X0414575Y0009317D01*
X0415680Y0009317D02*
X0416047Y0008950D01*
X0416781Y0008950D01*
X0417148Y0009317D01*
X0417148Y0009684D01*
X0416781Y0010051D01*
X0416414Y0010051D01*
X0416781Y0010051D02*
X0417148Y0010418D01*
X0417148Y0010785D01*
X0416781Y0011152D01*
X0416047Y0011152D01*
X0415680Y0010785D01*
X0417890Y0011152D02*
X0417890Y0009684D01*
X0418624Y0008950D01*
X0419358Y0009684D01*
X0419358Y0011152D01*
X0422220Y0010785D02*
X0422220Y0009317D01*
X0422587Y0008950D01*
X0423321Y0008950D01*
X0423688Y0009317D01*
X0423688Y0010051D01*
X0422954Y0010051D01*
X0422220Y0010785D02*
X0422587Y0011152D01*
X0423321Y0011152D01*
X0423688Y0010785D01*
X0424430Y0011152D02*
X0425898Y0008950D01*
X0425898Y0011152D01*
X0426640Y0011152D02*
X0427741Y0011152D01*
X0428108Y0010785D01*
X0428108Y0009317D01*
X0427741Y0008950D01*
X0426640Y0008950D01*
X0426640Y0011152D01*
X0424430Y0011152D02*
X0424430Y0008950D01*
X0430198Y0103850D02*
X0430932Y0104584D01*
X0430198Y0105318D01*
X0432400Y0105318D01*
X0432400Y0106060D02*
X0432400Y0106794D01*
X0432400Y0106427D02*
X0430198Y0106427D01*
X0430198Y0106060D02*
X0430198Y0106794D01*
X0430565Y0107533D02*
X0430932Y0107533D01*
X0431299Y0107900D01*
X0431299Y0108634D01*
X0431666Y0109001D01*
X0432033Y0109001D01*
X0432400Y0108634D01*
X0432400Y0107900D01*
X0432033Y0107533D01*
X0430565Y0107533D02*
X0430198Y0107900D01*
X0430198Y0108634D01*
X0430565Y0109001D01*
X0430565Y0109743D02*
X0432033Y0109743D01*
X0432400Y0110110D01*
X0432400Y0110844D01*
X0432033Y0111211D01*
X0430565Y0111211D01*
X0430198Y0110844D01*
X0430198Y0110110D01*
X0430565Y0109743D01*
X0431299Y0113850D02*
X0431299Y0115318D01*
X0431299Y0116060D02*
X0430932Y0116794D01*
X0430932Y0117161D01*
X0431299Y0117528D01*
X0432033Y0117528D01*
X0432400Y0117161D01*
X0432400Y0116427D01*
X0432033Y0116060D01*
X0431299Y0116060D02*
X0430198Y0116060D01*
X0430198Y0117528D01*
X0430198Y0118270D02*
X0431666Y0118270D01*
X0432400Y0119004D01*
X0431666Y0119738D01*
X0430198Y0119738D01*
X0430565Y0122600D02*
X0430932Y0122600D01*
X0431299Y0122967D01*
X0431299Y0123701D01*
X0431666Y0124068D01*
X0432033Y0124068D01*
X0432400Y0123701D01*
X0432400Y0122967D01*
X0432033Y0122600D01*
X0430565Y0122600D02*
X0430198Y0122967D01*
X0430198Y0123701D01*
X0430565Y0124068D01*
X0430198Y0124810D02*
X0430198Y0125911D01*
X0430565Y0126278D01*
X0431299Y0126278D01*
X0431666Y0125911D01*
X0431666Y0124810D01*
X0432400Y0124810D02*
X0430198Y0124810D01*
X0430565Y0127020D02*
X0432033Y0127020D01*
X0432400Y0127387D01*
X0432400Y0128121D01*
X0432033Y0128488D01*
X0431666Y0129230D02*
X0430198Y0130698D01*
X0430198Y0129230D02*
X0432400Y0129230D01*
X0431299Y0129597D02*
X0432400Y0130698D01*
X0430565Y0128488D02*
X0430198Y0128121D01*
X0430198Y0127387D01*
X0430565Y0127020D01*
X0430198Y0133850D02*
X0430932Y0134584D01*
X0430198Y0135318D01*
X0432400Y0135318D01*
X0432033Y0136060D02*
X0432400Y0136427D01*
X0432400Y0137161D01*
X0432033Y0137528D01*
X0430565Y0137528D01*
X0430198Y0137161D01*
X0430198Y0136427D01*
X0430565Y0136060D01*
X0432033Y0136060D01*
X0432033Y0138270D02*
X0432400Y0138637D01*
X0432400Y0139371D01*
X0432033Y0139738D01*
X0431666Y0139738D01*
X0431299Y0139371D01*
X0431299Y0138637D01*
X0430932Y0138270D01*
X0430565Y0138270D01*
X0430198Y0138637D01*
X0430198Y0139371D01*
X0430565Y0139738D01*
X0430198Y0140480D02*
X0430198Y0141214D01*
X0430198Y0140847D02*
X0432400Y0140847D01*
X0432400Y0140480D02*
X0432400Y0141214D01*
X0432400Y0145100D02*
X0430198Y0145100D01*
X0430932Y0145834D01*
X0430198Y0146568D01*
X0432400Y0146568D01*
X0432767Y0147310D02*
X0432767Y0148778D01*
X0432400Y0149520D02*
X0430198Y0149520D01*
X0430198Y0150621D01*
X0430565Y0150988D01*
X0431299Y0150988D01*
X0431666Y0150621D01*
X0431666Y0149520D01*
X0431666Y0150254D02*
X0432400Y0150988D01*
X0432033Y0155100D02*
X0432400Y0155467D01*
X0432400Y0156201D01*
X0432033Y0156568D01*
X0431299Y0156568D01*
X0431299Y0155834D01*
X0430565Y0156568D02*
X0430198Y0156201D01*
X0430198Y0155467D01*
X0430565Y0155100D01*
X0432033Y0155100D01*
X0432400Y0157310D02*
X0430198Y0157310D01*
X0432400Y0158778D01*
X0430198Y0158778D01*
X0430198Y0159520D02*
X0430198Y0160621D01*
X0430565Y0160988D01*
X0432033Y0160988D01*
X0432400Y0160621D01*
X0432400Y0159520D01*
X0430198Y0159520D01*
X0430198Y0133850D02*
X0432400Y0133850D01*
X0432033Y0114584D02*
X0430565Y0114584D01*
X0430198Y0103850D02*
X0432400Y0103850D01*
X0212500Y0078000D02*
X0212500Y0042000D01*
X0180000Y0042000D01*
X0180000Y0078000D01*
X0212500Y0078000D01*
D15*
X0278172Y0135400D02*
X0278172Y0144608D01*
X0282776Y0144608D01*
X0284311Y0143073D01*
X0284311Y0140004D01*
X0282776Y0138469D01*
X0278172Y0138469D01*
X0281242Y0138469D02*
X0284311Y0135400D01*
X0287380Y0135400D02*
X0287380Y0141539D01*
X0290450Y0144608D01*
X0293519Y0141539D01*
X0293519Y0135400D01*
X0296588Y0135400D02*
X0296588Y0144608D01*
X0299657Y0141539D01*
X0302727Y0144608D01*
X0302727Y0135400D01*
X0305796Y0135400D02*
X0305796Y0144608D01*
X0310400Y0144608D01*
X0311935Y0143073D01*
X0311935Y0140004D01*
X0310400Y0138469D01*
X0305796Y0138469D01*
X0315004Y0136935D02*
X0316539Y0135400D01*
X0319608Y0135400D01*
X0321142Y0136935D01*
X0321142Y0138469D01*
X0319608Y0140004D01*
X0316539Y0140004D01*
X0315004Y0141539D01*
X0315004Y0143073D01*
X0316539Y0144608D01*
X0319608Y0144608D01*
X0321142Y0143073D01*
X0324212Y0144608D02*
X0328816Y0144608D01*
X0330350Y0143073D01*
X0330350Y0136935D01*
X0328816Y0135400D01*
X0324212Y0135400D01*
X0324212Y0144608D01*
X0333420Y0143073D02*
X0333420Y0136935D01*
X0334954Y0135400D01*
X0338024Y0135400D01*
X0339558Y0136935D01*
X0339558Y0143073D02*
X0338024Y0144608D01*
X0334954Y0144608D01*
X0333420Y0143073D01*
X0293519Y0140004D02*
X0287380Y0140004D01*
D16*
X0273750Y0132500D02*
X0345000Y0132500D01*
X0370000Y0105000D02*
X0315000Y0105000D01*
X0315000Y0080000D01*
X0370000Y0080000D01*
X0315000Y0080000D02*
X0315000Y0040000D01*
X0230000Y0110000D02*
X0230000Y0160000D01*
X0210000Y0160000D02*
X0210000Y0110000D01*
X0165000Y0110000D02*
X0165000Y0160000D01*
X0145000Y0160000D02*
X0145000Y0110000D01*
X0100000Y0110000D02*
X0100000Y0160000D01*
X0080000Y0160000D02*
X0080000Y0110000D01*
X0050000Y0040000D02*
X0110000Y0040000D01*
D17*
X0090000Y0055000D02*
X0065000Y0055000D01*
X0077500Y0072500D01*
X0090000Y0055000D01*
X0077500Y0057500D02*
X0077500Y0058750D01*
X0077500Y0061250D02*
X0077500Y0067500D01*
D18*
X0045000Y0230000D02*
X0045000Y0231250D01*
X0350000Y0231250D01*
X0365000Y0240000D01*
X0420000Y0240000D01*
X0435000Y0230000D01*
D19*
X0415250Y0223750D02*
X0395250Y0223750D01*
X0395250Y0043750D01*
X0415250Y0043750D01*
X0415250Y0223750D01*
X0375250Y0223750D02*
X0295250Y0223750D01*
X0285250Y0223750D02*
X0205250Y0223750D01*
X0200250Y0223750D02*
X0120250Y0223750D01*
X0120250Y0213750D01*
X0325250Y0185854D02*
X0326751Y0185854D01*
X0326001Y0185854D02*
X0326001Y0181350D01*
X0326751Y0181350D02*
X0325250Y0181350D01*
X0328319Y0182101D02*
X0329070Y0181350D01*
X0330571Y0181350D01*
X0331322Y0182101D01*
X0332923Y0181350D02*
X0335926Y0181350D01*
X0334424Y0181350D02*
X0334424Y0185854D01*
X0332923Y0184353D01*
X0331322Y0185103D02*
X0330571Y0185854D01*
X0329070Y0185854D01*
X0328319Y0185103D01*
X0328319Y0182101D01*
X0315250Y0033750D02*
X0395250Y0033750D01*
X0395250Y0023750D01*
X0315250Y0023750D01*
X0315250Y0033750D01*
X0305250Y0033750D02*
X0305250Y0023750D01*
X0225250Y0023750D01*
X0225250Y0033750D01*
X0305250Y0033750D01*
X0215250Y0033750D02*
X0215250Y0023750D01*
X0155250Y0023750D01*
X0155250Y0033750D01*
X0215250Y0033750D01*
D20*
X0227250Y0050000D03*
X0227250Y0060000D03*
X0227250Y0070000D03*
D21*
X0220500Y0070000D03*
X0220500Y0060000D03*
X0220500Y0050000D03*
D22*
X0235595Y0053662D02*
X0235595Y0055764D01*
X0235595Y0054713D02*
X0241900Y0054713D01*
X0241900Y0053662D02*
X0241900Y0055764D01*
X0240849Y0057959D02*
X0236646Y0057959D01*
X0235595Y0059010D01*
X0235595Y0061112D01*
X0236646Y0062163D01*
X0236646Y0064404D02*
X0235595Y0065455D01*
X0235595Y0067557D01*
X0236646Y0068608D01*
X0237696Y0068608D01*
X0241900Y0064404D01*
X0241900Y0068608D01*
X0240849Y0062163D02*
X0241900Y0061112D01*
X0241900Y0059010D01*
X0240849Y0057959D01*
D23*
X0332080Y0056256D03*
X0337880Y0056256D03*
X0350830Y0056256D03*
X0356630Y0056256D03*
X0356630Y0067506D03*
X0350830Y0067506D03*
X0337880Y0067506D03*
X0332080Y0067506D03*
X0332080Y0045006D03*
X0337880Y0045006D03*
X0350830Y0045006D03*
X0356630Y0045006D03*
D24*
X0314886Y0147846D02*
X0315904Y0148864D01*
X0314693Y0150348D01*
X0315001Y0150946D01*
X0315206Y0151587D01*
X0317111Y0151780D01*
X0317111Y0153220D01*
X0315206Y0153413D01*
X0315001Y0154054D01*
X0314693Y0154652D01*
X0315904Y0156136D01*
X0314886Y0157154D01*
X0313402Y0155943D01*
X0312804Y0156251D01*
X0312163Y0156456D01*
X0311970Y0158361D01*
X0310530Y0158361D01*
X0310337Y0156456D01*
X0309696Y0156251D01*
X0309098Y0155943D01*
X0307614Y0157154D01*
X0306596Y0156136D01*
X0307807Y0154652D01*
X0307499Y0154054D01*
X0307294Y0153413D01*
X0305389Y0153220D01*
X0305389Y0151780D01*
X0307294Y0151587D01*
X0307499Y0150946D01*
X0307807Y0150348D01*
X0306596Y0148864D01*
X0307614Y0147846D01*
X0309098Y0149057D01*
X0309696Y0148749D01*
X0310544Y0150795D01*
X0310165Y0151007D01*
X0309847Y0151301D01*
X0309605Y0151662D01*
X0309455Y0152069D01*
X0309404Y0152500D01*
X0309457Y0152939D01*
X0309613Y0153352D01*
X0309862Y0153717D01*
X0310191Y0154011D01*
X0310581Y0154220D01*
X0311009Y0154329D01*
X0311451Y0154334D01*
X0311881Y0154234D01*
X0312275Y0154034D01*
X0312610Y0153746D01*
X0312868Y0153387D01*
X0313032Y0152977D01*
X0313095Y0152540D01*
X0313051Y0152100D01*
X0312905Y0151684D01*
X0312664Y0151314D01*
X0312341Y0151012D01*
X0311956Y0150795D01*
X0312804Y0148749D01*
X0313402Y0149057D01*
X0314886Y0147846D01*
X0315182Y0148142D02*
X0314523Y0148142D01*
X0313801Y0148731D02*
X0315771Y0148731D01*
X0315532Y0149320D02*
X0312567Y0149320D01*
X0312323Y0149909D02*
X0315051Y0149909D01*
X0314771Y0150498D02*
X0312079Y0150498D01*
X0312422Y0151088D02*
X0315046Y0151088D01*
X0316091Y0151677D02*
X0312900Y0151677D01*
X0313068Y0152266D02*
X0317111Y0152266D01*
X0317111Y0152855D02*
X0313050Y0152855D01*
X0312827Y0153444D02*
X0315197Y0153444D01*
X0315008Y0154033D02*
X0312276Y0154033D01*
X0310232Y0154033D02*
X0307492Y0154033D01*
X0307303Y0153444D02*
X0309676Y0153444D01*
X0309447Y0152855D02*
X0305389Y0152855D01*
X0305389Y0152266D02*
X0309432Y0152266D01*
X0309600Y0151677D02*
X0306409Y0151677D01*
X0307454Y0151088D02*
X0310078Y0151088D01*
X0310421Y0150498D02*
X0307729Y0150498D01*
X0307449Y0149909D02*
X0310177Y0149909D01*
X0309933Y0149320D02*
X0306968Y0149320D01*
X0306729Y0148731D02*
X0308699Y0148731D01*
X0307977Y0148142D02*
X0307318Y0148142D01*
X0307791Y0154622D02*
X0314709Y0154622D01*
X0315149Y0155211D02*
X0307351Y0155211D01*
X0306870Y0155800D02*
X0315630Y0155800D01*
X0315650Y0156389D02*
X0313948Y0156389D01*
X0314671Y0156978D02*
X0315061Y0156978D01*
X0312373Y0156389D02*
X0310127Y0156389D01*
X0310390Y0156978D02*
X0312110Y0156978D01*
X0312050Y0157567D02*
X0310450Y0157567D01*
X0310509Y0158156D02*
X0311991Y0158156D01*
X0308552Y0156389D02*
X0306850Y0156389D01*
X0307439Y0156978D02*
X0307829Y0156978D01*
M02*
